<mxfile host="65bd71144e">
    <diagram id="GLpcDzZ6awA-tPtxPKLA" name="Page-1">
        <mxGraphModel dx="4268" dy="2734" grid="1" gridSize="10" guides="1" tooltips="1" connect="1" arrows="1" fold="1" page="1" pageScale="1" pageWidth="850" pageHeight="1100" math="0" shadow="0">
            <root>
                <mxCell id="0"/>
                <mxCell id="1" parent="0"/>
                <mxCell id="625" value="" style="rounded=0;whiteSpace=wrap;html=1;" vertex="1" parent="1">
                    <mxGeometry x="-660" y="141" width="40" height="19.5" as="geometry"/>
                </mxCell>
                <mxCell id="626" value="" style="rounded=0;whiteSpace=wrap;html=1;" vertex="1" parent="1">
                    <mxGeometry x="-980" y="141" width="160" height="19.5" as="geometry"/>
                </mxCell>
                <mxCell id="623" value="" style="rounded=0;whiteSpace=wrap;html=1;" vertex="1" parent="1">
                    <mxGeometry x="-1212.5" y="140.5" width="120" height="19.5" as="geometry"/>
                </mxCell>
                <mxCell id="267" value="" style="rounded=0;html=1;" parent="1" vertex="1">
                    <mxGeometry x="-370" y="-1190" width="760" height="1125.39" as="geometry"/>
                </mxCell>
                <mxCell id="2" value="user" style="swimlane;fontStyle=0;align=center;verticalAlign=top;childLayout=stackLayout;horizontal=1;startSize=30;horizontalStack=0;resizeParent=1;resizeParentMax=0;resizeLast=0;collapsible=0;marginBottom=0;html=1;whiteSpace=wrap;" parent="1" vertex="1">
                    <mxGeometry x="-74" y="298.5" width="90" height="58" as="geometry"/>
                </mxCell>
                <mxCell id="4" value="id" style="text;html=1;strokeColor=none;fillColor=none;align=left;verticalAlign=middle;spacingLeft=4;spacingRight=4;overflow=hidden;rotatable=0;points=[[0,0.5],[1,0.5]];portConstraint=eastwest;whiteSpace=wrap;" parent="2" vertex="1">
                    <mxGeometry y="30" width="90" height="20" as="geometry"/>
                </mxCell>
                <mxCell id="7" value="" style="line;strokeWidth=1;fillColor=none;align=left;verticalAlign=middle;spacingTop=-1;spacingLeft=3;spacingRight=3;rotatable=0;labelPosition=right;points=[];portConstraint=eastwest;" parent="2" vertex="1">
                    <mxGeometry y="50" width="90" height="8" as="geometry"/>
                </mxCell>
                <mxCell id="54" value="Guest" style="swimlane;fontStyle=0;align=center;verticalAlign=top;childLayout=stackLayout;horizontal=1;startSize=29;horizontalStack=0;resizeParent=1;resizeParentMax=0;resizeLast=0;collapsible=0;marginBottom=0;html=1;whiteSpace=wrap;" parent="1" vertex="1">
                    <mxGeometry x="-124" y="420" width="90" height="34" as="geometry"/>
                </mxCell>
                <mxCell id="56" value="" style="line;strokeWidth=1;fillColor=none;align=left;verticalAlign=middle;spacingTop=-1;spacingLeft=3;spacingRight=3;rotatable=0;labelPosition=right;points=[];portConstraint=eastwest;" parent="54" vertex="1">
                    <mxGeometry y="29" width="90" height="5" as="geometry"/>
                </mxCell>
                <mxCell id="62" style="edgeStyle=none;html=1;exitX=0.25;exitY=0;exitDx=0;exitDy=0;entryX=0.5;entryY=1;entryDx=0;entryDy=0;" parent="1" source="57" target="2" edge="1">
                    <mxGeometry relative="1" as="geometry"/>
                </mxCell>
                <mxCell id="57" value="Client" style="swimlane;fontStyle=0;align=center;verticalAlign=top;childLayout=stackLayout;horizontal=1;startSize=29;horizontalStack=0;resizeParent=1;resizeParentMax=0;resizeLast=0;collapsible=0;marginBottom=0;html=1;whiteSpace=wrap;" parent="1" vertex="1">
                    <mxGeometry x="-24" y="420" width="90" height="118" as="geometry"/>
                </mxCell>
                <mxCell id="58" value="&lt;div&gt;cin&lt;/div&gt;username&lt;div&gt;password&lt;/div&gt;&lt;div&gt;email&lt;/div&gt;&lt;div&gt;phoneNumber&lt;/div&gt;" style="text;html=1;strokeColor=none;fillColor=none;align=left;verticalAlign=middle;spacingLeft=4;spacingRight=4;overflow=hidden;rotatable=0;points=[[0,0.5],[1,0.5]];portConstraint=eastwest;whiteSpace=wrap;" parent="57" vertex="1">
                    <mxGeometry y="29" width="90" height="81" as="geometry"/>
                </mxCell>
                <mxCell id="59" value="" style="line;strokeWidth=1;fillColor=none;align=left;verticalAlign=middle;spacingTop=-1;spacingLeft=3;spacingRight=3;rotatable=0;labelPosition=right;points=[];portConstraint=eastwest;" parent="57" vertex="1">
                    <mxGeometry y="110" width="90" height="8" as="geometry"/>
                </mxCell>
                <mxCell id="60" value="Role" style="rounded=0;whiteSpace=wrap;html=1;" parent="1" vertex="1">
                    <mxGeometry x="-154" y="488.5" width="55" height="24" as="geometry"/>
                </mxCell>
                <mxCell id="61" value="features" style="rounded=0;whiteSpace=wrap;html=1;" parent="1" vertex="1">
                    <mxGeometry x="-99" y="532.5" width="55" height="24" as="geometry"/>
                </mxCell>
                <mxCell id="63" style="edgeStyle=none;html=1;exitX=0.5;exitY=0;exitDx=0;exitDy=0;entryX=0.395;entryY=0.773;entryDx=0;entryDy=0;entryPerimeter=0;" parent="1" source="54" target="7" edge="1">
                    <mxGeometry relative="1" as="geometry"/>
                </mxCell>
                <mxCell id="69" value="" style="endArrow=none;html=1;entryX=0;entryY=0.5;entryDx=0;entryDy=0;exitX=0.25;exitY=0;exitDx=0;exitDy=0;" parent="1" source="60" target="4" edge="1">
                    <mxGeometry width="50" height="50" relative="1" as="geometry">
                        <mxPoint x="-151.5" y="378.5" as="sourcePoint"/>
                        <mxPoint x="-101.5" y="328.5" as="targetPoint"/>
                        <Array as="points">
                            <mxPoint x="-140" y="339"/>
                        </Array>
                    </mxGeometry>
                </mxCell>
                <mxCell id="70" value="" style="rhombus;whiteSpace=wrap;html=1;" parent="1" vertex="1">
                    <mxGeometry x="-144" y="512.5" width="20" height="20" as="geometry"/>
                </mxCell>
                <mxCell id="71" value="" style="endArrow=none;html=1;exitX=0.003;exitY=0.667;exitDx=0;exitDy=0;exitPerimeter=0;" parent="1" source="61" edge="1">
                    <mxGeometry width="50" height="50" relative="1" as="geometry">
                        <mxPoint x="-104" y="548.5" as="sourcePoint"/>
                        <mxPoint x="-134" y="532.5" as="targetPoint"/>
                        <Array as="points">
                            <mxPoint x="-134" y="548.5"/>
                        </Array>
                    </mxGeometry>
                </mxCell>
                <mxCell id="72" value="Permissions" style="swimlane;fontStyle=0;align=center;verticalAlign=top;childLayout=stackLayout;horizontal=1;startSize=29;horizontalStack=0;resizeParent=1;resizeParentMax=0;resizeLast=0;collapsible=0;marginBottom=0;html=1;whiteSpace=wrap;" parent="1" vertex="1">
                    <mxGeometry x="-154" y="578.5" width="100" height="112" as="geometry"/>
                </mxCell>
                <mxCell id="73" value="ajouter: Bool&lt;div&gt;modifier: Bool&lt;/div&gt;&lt;div&gt;supprimer: Bool&lt;/div&gt;&lt;div&gt;consulter: Bool&lt;/div&gt;" style="text;html=1;strokeColor=none;fillColor=none;align=left;verticalAlign=middle;spacingLeft=4;spacingRight=4;overflow=hidden;rotatable=0;points=[[0,0.5],[1,0.5]];portConstraint=eastwest;whiteSpace=wrap;" parent="72" vertex="1">
                    <mxGeometry y="29" width="100" height="75" as="geometry"/>
                </mxCell>
                <mxCell id="74" value="" style="line;strokeWidth=1;fillColor=none;align=left;verticalAlign=middle;spacingTop=-1;spacingLeft=3;spacingRight=3;rotatable=0;labelPosition=right;points=[];portConstraint=eastwest;" parent="72" vertex="1">
                    <mxGeometry y="104" width="100" height="8" as="geometry"/>
                </mxCell>
                <mxCell id="75" value="" style="endArrow=none;dashed=1;html=1;exitX=0.398;exitY=0.004;exitDx=0;exitDy=0;exitPerimeter=0;" parent="1" source="72" edge="1">
                    <mxGeometry width="50" height="50" relative="1" as="geometry">
                        <mxPoint x="-159" y="598.5" as="sourcePoint"/>
                        <mxPoint x="-114" y="548.5" as="targetPoint"/>
                    </mxGeometry>
                </mxCell>
                <mxCell id="77" value="voiture" style="swimlane;fontStyle=0;align=center;verticalAlign=top;childLayout=stackLayout;horizontal=1;startSize=29;horizontalStack=0;resizeParent=1;resizeParentMax=0;resizeLast=0;collapsible=0;marginBottom=0;html=1;whiteSpace=wrap;" parent="1" vertex="1">
                    <mxGeometry x="186" y="327" width="90" height="100" as="geometry"/>
                </mxCell>
                <mxCell id="78" value="id&lt;div&gt;chassisNum&lt;/div&gt;&lt;div&gt;carteGrise&lt;/div&gt;&lt;div&gt;immatriculation&lt;/div&gt;&lt;div&gt;&lt;br&gt;&lt;/div&gt;" style="text;html=1;strokeColor=none;fillColor=none;align=left;verticalAlign=middle;spacingLeft=4;spacingRight=4;overflow=hidden;rotatable=0;points=[[0,0.5],[1,0.5]];portConstraint=eastwest;whiteSpace=wrap;" parent="77" vertex="1">
                    <mxGeometry y="29" width="90" height="61" as="geometry"/>
                </mxCell>
                <mxCell id="79" value="" style="line;strokeWidth=1;fillColor=none;align=left;verticalAlign=middle;spacingTop=-1;spacingLeft=3;spacingRight=3;rotatable=0;labelPosition=right;points=[];portConstraint=eastwest;" parent="77" vertex="1">
                    <mxGeometry y="90" width="90" height="10" as="geometry"/>
                </mxCell>
                <mxCell id="80" value="Locale" style="swimlane;fontStyle=0;align=center;verticalAlign=top;childLayout=stackLayout;horizontal=1;startSize=29;horizontalStack=0;resizeParent=1;resizeParentMax=0;resizeLast=0;collapsible=0;marginBottom=0;html=1;whiteSpace=wrap;" parent="1" vertex="1">
                    <mxGeometry x="316" y="388" width="100" height="34" as="geometry"/>
                </mxCell>
                <mxCell id="81" value="" style="line;strokeWidth=1;fillColor=none;align=left;verticalAlign=middle;spacingTop=-1;spacingLeft=3;spacingRight=3;rotatable=0;labelPosition=right;points=[];portConstraint=eastwest;" parent="80" vertex="1">
                    <mxGeometry y="29" width="100" height="5" as="geometry"/>
                </mxCell>
                <mxCell id="82" value="Etrangére" style="swimlane;fontStyle=0;align=center;verticalAlign=top;childLayout=stackLayout;horizontal=1;startSize=29;horizontalStack=0;resizeParent=1;resizeParentMax=0;resizeLast=0;collapsible=0;marginBottom=0;html=1;whiteSpace=wrap;" parent="1" vertex="1">
                    <mxGeometry x="316" y="310" width="100" height="70" as="geometry"/>
                </mxCell>
                <mxCell id="83" value="pays_imm" style="text;html=1;strokeColor=none;fillColor=none;align=left;verticalAlign=middle;spacingLeft=4;spacingRight=4;overflow=hidden;rotatable=0;points=[[0,0.5],[1,0.5]];portConstraint=eastwest;whiteSpace=wrap;" parent="82" vertex="1">
                    <mxGeometry y="29" width="100" height="31" as="geometry"/>
                </mxCell>
                <mxCell id="84" value="" style="line;strokeWidth=1;fillColor=none;align=left;verticalAlign=middle;spacingTop=-1;spacingLeft=3;spacingRight=3;rotatable=0;labelPosition=right;points=[];portConstraint=eastwest;" parent="82" vertex="1">
                    <mxGeometry y="60" width="100" height="10" as="geometry"/>
                </mxCell>
                <mxCell id="85" style="edgeStyle=elbowEdgeStyle;html=1;exitX=0;exitY=0.5;exitDx=0;exitDy=0;" parent="1" source="83" edge="1">
                    <mxGeometry relative="1" as="geometry">
                        <mxPoint x="276" y="367" as="targetPoint"/>
                    </mxGeometry>
                </mxCell>
                <mxCell id="86" style="edgeStyle=elbowEdgeStyle;html=1;exitX=0;exitY=0.5;exitDx=0;exitDy=0;" parent="1" source="80" target="78" edge="1">
                    <mxGeometry relative="1" as="geometry"/>
                </mxCell>
                <mxCell id="87" value="version" style="rounded=0;whiteSpace=wrap;html=1;" parent="1" vertex="1">
                    <mxGeometry x="203.5" y="238.5" width="55" height="24" as="geometry"/>
                </mxCell>
                <mxCell id="88" value="marque" style="rounded=0;whiteSpace=wrap;html=1;" parent="1" vertex="1">
                    <mxGeometry x="406" y="238.5" width="55" height="24" as="geometry"/>
                </mxCell>
                <mxCell id="89" value="modéle" style="rounded=0;whiteSpace=wrap;html=1;" parent="1" vertex="1">
                    <mxGeometry x="306" y="238.5" width="55" height="24" as="geometry"/>
                </mxCell>
                <mxCell id="91" value="" style="endArrow=none;html=1;exitX=0.433;exitY=0.004;exitDx=0;exitDy=0;exitPerimeter=0;entryX=0.402;entryY=1.023;entryDx=0;entryDy=0;entryPerimeter=0;" parent="1" source="77" target="87" edge="1">
                    <mxGeometry width="50" height="50" relative="1" as="geometry">
                        <mxPoint x="176" y="312.5" as="sourcePoint"/>
                        <mxPoint x="226" y="262.5" as="targetPoint"/>
                    </mxGeometry>
                </mxCell>
                <mxCell id="92" value="" style="rhombus;whiteSpace=wrap;html=1;fillColor=#1A1A1A;" parent="1" vertex="1">
                    <mxGeometry x="296" y="245.5" width="10" height="10" as="geometry"/>
                </mxCell>
                <mxCell id="93" value="" style="rhombus;whiteSpace=wrap;html=1;fillColor=#1A1A1A;" parent="1" vertex="1">
                    <mxGeometry x="396" y="245.5" width="10" height="10" as="geometry"/>
                </mxCell>
                <mxCell id="94" value="" style="endArrow=none;html=1;exitX=1;exitY=0.5;exitDx=0;exitDy=0;entryX=0;entryY=0.5;entryDx=0;entryDy=0;" parent="1" source="87" target="92" edge="1">
                    <mxGeometry width="50" height="50" relative="1" as="geometry">
                        <mxPoint x="246" y="298.5" as="sourcePoint"/>
                        <mxPoint x="296" y="248.5" as="targetPoint"/>
                    </mxGeometry>
                </mxCell>
                <mxCell id="95" value="" style="endArrow=none;html=1;exitX=1;exitY=0.5;exitDx=0;exitDy=0;entryX=0;entryY=0.5;entryDx=0;entryDy=0;" parent="1" target="93" edge="1">
                    <mxGeometry width="50" height="50" relative="1" as="geometry">
                        <mxPoint x="361" y="250.39" as="sourcePoint"/>
                        <mxPoint x="396" y="248.5" as="targetPoint"/>
                    </mxGeometry>
                </mxCell>
                <mxCell id="96" value="" style="endArrow=none;html=1;exitX=0.75;exitY=0;exitDx=0;exitDy=0;entryX=0;entryY=0.5;entryDx=0;entryDy=0;" parent="1" source="57" target="77" edge="1">
                    <mxGeometry width="50" height="50" relative="1" as="geometry">
                        <mxPoint x="316" y="338.5" as="sourcePoint"/>
                        <mxPoint x="366" y="288.5" as="targetPoint"/>
                        <Array as="points">
                            <mxPoint x="106" y="378.5"/>
                        </Array>
                    </mxGeometry>
                </mxCell>
                <mxCell id="97" value="appartenir" style="swimlane;fontStyle=0;align=center;verticalAlign=top;childLayout=stackLayout;horizontal=1;startSize=29;horizontalStack=0;resizeParent=1;resizeParentMax=0;resizeLast=0;collapsible=0;marginBottom=0;html=1;whiteSpace=wrap;" parent="1" vertex="1">
                    <mxGeometry x="73.5" y="190" width="90" height="80" as="geometry"/>
                </mxCell>
                <mxCell id="98" value="dte_aj&lt;div&gt;dte_supp&lt;/div&gt;" style="text;html=1;strokeColor=none;fillColor=none;align=left;verticalAlign=middle;spacingLeft=4;spacingRight=4;overflow=hidden;rotatable=0;points=[[0,0.5],[1,0.5]];portConstraint=eastwest;whiteSpace=wrap;" parent="97" vertex="1">
                    <mxGeometry y="29" width="90" height="41" as="geometry"/>
                </mxCell>
                <mxCell id="99" value="" style="line;strokeWidth=1;fillColor=none;align=left;verticalAlign=middle;spacingTop=-1;spacingLeft=3;spacingRight=3;rotatable=0;labelPosition=right;points=[];portConstraint=eastwest;" parent="97" vertex="1">
                    <mxGeometry y="70" width="90" height="10" as="geometry"/>
                </mxCell>
                <mxCell id="100" value="" style="endArrow=none;dashed=1;html=1;entryX=0.5;entryY=1;entryDx=0;entryDy=0;" parent="1" edge="1" target="97">
                    <mxGeometry width="50" height="50" relative="1" as="geometry">
                        <mxPoint x="119" y="380" as="sourcePoint"/>
                        <mxPoint x="86" y="280" as="targetPoint"/>
                    </mxGeometry>
                </mxCell>
                <mxCell id="101" value="RDV" style="swimlane;fontStyle=0;align=center;verticalAlign=top;childLayout=stackLayout;horizontal=1;startSize=29;horizontalStack=0;resizeParent=1;resizeParentMax=0;resizeLast=0;collapsible=0;marginBottom=0;html=1;whiteSpace=wrap;" parent="1" vertex="1">
                    <mxGeometry x="113.5" y="498.5" width="140" height="112" as="geometry"/>
                </mxCell>
                <mxCell id="102" value="id&lt;div&gt;date&lt;/div&gt;&lt;div&gt;heure&lt;/div&gt;&lt;div&gt;status {att,annulé,term}&lt;/div&gt;" style="text;html=1;strokeColor=none;fillColor=none;align=left;verticalAlign=middle;spacingLeft=4;spacingRight=4;overflow=hidden;rotatable=0;points=[[0,0.5],[1,0.5]];portConstraint=eastwest;whiteSpace=wrap;" parent="101" vertex="1">
                    <mxGeometry y="29" width="140" height="75" as="geometry"/>
                </mxCell>
                <mxCell id="103" value="" style="line;strokeWidth=1;fillColor=none;align=left;verticalAlign=middle;spacingTop=-1;spacingLeft=3;spacingRight=3;rotatable=0;labelPosition=right;points=[];portConstraint=eastwest;" parent="101" vertex="1">
                    <mxGeometry y="104" width="140" height="8" as="geometry"/>
                </mxCell>
                <mxCell id="106" value="" style="endArrow=none;html=1;entryX=1;entryY=0.5;entryDx=0;entryDy=0;exitX=0.072;exitY=-0.005;exitDx=0;exitDy=0;exitPerimeter=0;" parent="1" source="101" target="4" edge="1">
                    <mxGeometry width="50" height="50" relative="1" as="geometry">
                        <mxPoint x="316" y="578.5" as="sourcePoint"/>
                        <mxPoint x="366" y="528.5" as="targetPoint"/>
                        <Array as="points">
                            <mxPoint x="124" y="408.5"/>
                            <mxPoint x="66" y="408.5"/>
                            <mxPoint x="66" y="338.5"/>
                        </Array>
                    </mxGeometry>
                </mxCell>
                <mxCell id="107" value="" style="endArrow=none;html=1;entryX=0.835;entryY=0.009;entryDx=0;entryDy=0;entryPerimeter=0;exitX=0.5;exitY=1;exitDx=0;exitDy=0;" parent="1" source="77" target="101" edge="1">
                    <mxGeometry width="50" height="50" relative="1" as="geometry">
                        <mxPoint x="236" y="468.5" as="sourcePoint"/>
                        <mxPoint x="286" y="458.5" as="targetPoint"/>
                    </mxGeometry>
                </mxCell>
                <mxCell id="132" value="disponiblité" style="swimlane;fontStyle=0;align=center;verticalAlign=top;childLayout=stackLayout;horizontal=1;startSize=29;horizontalStack=0;resizeParent=1;resizeParentMax=0;resizeLast=0;collapsible=0;marginBottom=0;html=1;whiteSpace=wrap;" parent="1" vertex="1">
                    <mxGeometry x="286" y="768.5" width="70" height="100" as="geometry"/>
                </mxCell>
                <mxCell id="133" value="&lt;div&gt;jours&lt;/div&gt;&lt;div&gt;h_deb&lt;/div&gt;&lt;div&gt;h_fin&lt;/div&gt;" style="text;html=1;strokeColor=none;fillColor=none;align=left;verticalAlign=middle;spacingLeft=4;spacingRight=4;overflow=hidden;rotatable=0;points=[[0,0.5],[1,0.5]];portConstraint=eastwest;whiteSpace=wrap;" parent="132" vertex="1">
                    <mxGeometry y="29" width="70" height="61" as="geometry"/>
                </mxCell>
                <mxCell id="134" value="" style="line;strokeWidth=1;fillColor=none;align=left;verticalAlign=middle;spacingTop=-1;spacingLeft=3;spacingRight=3;rotatable=0;labelPosition=right;points=[];portConstraint=eastwest;" parent="132" vertex="1">
                    <mxGeometry y="90" width="70" height="10" as="geometry"/>
                </mxCell>
                <mxCell id="135" value="agence" style="swimlane;fontStyle=0;align=center;verticalAlign=top;childLayout=stackLayout;horizontal=1;startSize=29;horizontalStack=0;resizeParent=1;resizeParentMax=0;resizeLast=0;collapsible=0;marginBottom=0;html=1;whiteSpace=wrap;" parent="1" vertex="1">
                    <mxGeometry x="346" y="648.5" width="70" height="100" as="geometry"/>
                </mxCell>
                <mxCell id="136" value="&lt;div&gt;id&lt;/div&gt;&lt;div&gt;nom&lt;/div&gt;&lt;div&gt;adresse&lt;/div&gt;&lt;div&gt;contact&lt;/div&gt;" style="text;html=1;strokeColor=none;fillColor=none;align=left;verticalAlign=middle;spacingLeft=4;spacingRight=4;overflow=hidden;rotatable=0;points=[[0,0.5],[1,0.5]];portConstraint=eastwest;whiteSpace=wrap;" parent="135" vertex="1">
                    <mxGeometry y="29" width="70" height="61" as="geometry"/>
                </mxCell>
                <mxCell id="146" value="" style="endArrow=none;html=1;exitX=0.995;exitY=0.26;exitDx=0;exitDy=0;exitPerimeter=0;" parent="135" source="142" edge="1">
                    <mxGeometry width="50" height="50" relative="1" as="geometry">
                        <mxPoint x="-50" y="100" as="sourcePoint"/>
                        <mxPoint y="50" as="targetPoint"/>
                    </mxGeometry>
                </mxCell>
                <mxCell id="137" value="" style="line;strokeWidth=1;fillColor=none;align=left;verticalAlign=middle;spacingTop=-1;spacingLeft=3;spacingRight=3;rotatable=0;labelPosition=right;points=[];portConstraint=eastwest;" parent="135" vertex="1">
                    <mxGeometry y="90" width="70" height="10" as="geometry"/>
                </mxCell>
                <mxCell id="138" value="service" style="swimlane;fontStyle=0;align=center;verticalAlign=top;childLayout=stackLayout;horizontal=1;startSize=29;horizontalStack=0;resizeParent=1;resizeParentMax=0;resizeLast=0;collapsible=0;marginBottom=0;html=1;whiteSpace=wrap;" parent="1" vertex="1">
                    <mxGeometry x="346" y="510.5" width="70" height="100" as="geometry"/>
                </mxCell>
                <mxCell id="139" value="&lt;div&gt;id&lt;/div&gt;&lt;div&gt;description&lt;/div&gt;&lt;div&gt;prix&lt;/div&gt;&lt;div&gt;durée&lt;/div&gt;" style="text;html=1;strokeColor=none;fillColor=none;align=left;verticalAlign=middle;spacingLeft=4;spacingRight=4;overflow=hidden;rotatable=0;points=[[0,0.5],[1,0.5]];portConstraint=eastwest;whiteSpace=wrap;" parent="138" vertex="1">
                    <mxGeometry y="29" width="70" height="61" as="geometry"/>
                </mxCell>
                <mxCell id="140" value="" style="line;strokeWidth=1;fillColor=none;align=left;verticalAlign=middle;spacingTop=-1;spacingLeft=3;spacingRight=3;rotatable=0;labelPosition=right;points=[];portConstraint=eastwest;" parent="138" vertex="1">
                    <mxGeometry y="90" width="70" height="10" as="geometry"/>
                </mxCell>
                <mxCell id="141" value="saison" style="swimlane;fontStyle=0;align=center;verticalAlign=top;childLayout=stackLayout;horizontal=1;startSize=29;horizontalStack=0;resizeParent=1;resizeParentMax=0;resizeLast=0;collapsible=0;marginBottom=0;html=1;whiteSpace=wrap;" parent="1" vertex="1">
                    <mxGeometry x="216" y="658.5" width="70" height="80" as="geometry"/>
                </mxCell>
                <mxCell id="142" value="&lt;div&gt;dte_deb&lt;/div&gt;&lt;div&gt;dte_fin&lt;/div&gt;" style="text;html=1;strokeColor=none;fillColor=none;align=left;verticalAlign=middle;spacingLeft=4;spacingRight=4;overflow=hidden;rotatable=0;points=[[0,0.5],[1,0.5]];portConstraint=eastwest;whiteSpace=wrap;" parent="141" vertex="1">
                    <mxGeometry y="29" width="70" height="41" as="geometry"/>
                </mxCell>
                <mxCell id="143" value="" style="line;strokeWidth=1;fillColor=none;align=left;verticalAlign=middle;spacingTop=-1;spacingLeft=3;spacingRight=3;rotatable=0;labelPosition=right;points=[];portConstraint=eastwest;" parent="141" vertex="1">
                    <mxGeometry y="70" width="70" height="10" as="geometry"/>
                </mxCell>
                <mxCell id="144" value="" style="endArrow=none;html=1;exitX=1.004;exitY=0.354;exitDx=0;exitDy=0;exitPerimeter=0;" parent="1" source="102" edge="1">
                    <mxGeometry width="50" height="50" relative="1" as="geometry">
                        <mxPoint x="296" y="604.5" as="sourcePoint"/>
                        <mxPoint x="346" y="554.5" as="targetPoint"/>
                    </mxGeometry>
                </mxCell>
                <mxCell id="145" value="" style="endArrow=none;html=1;exitX=0.5;exitY=0;exitDx=0;exitDy=0;" parent="1" source="135" edge="1">
                    <mxGeometry width="50" height="50" relative="1" as="geometry">
                        <mxPoint x="336" y="654.5" as="sourcePoint"/>
                        <mxPoint x="381" y="608.5" as="targetPoint"/>
                    </mxGeometry>
                </mxCell>
                <mxCell id="147" value="" style="endArrow=none;dashed=1;html=1;exitX=0.428;exitY=-0.011;exitDx=0;exitDy=0;exitPerimeter=0;" parent="1" source="132" edge="1">
                    <mxGeometry width="50" height="50" relative="1" as="geometry">
                        <mxPoint x="266" y="748.5" as="sourcePoint"/>
                        <mxPoint x="316" y="698.5" as="targetPoint"/>
                    </mxGeometry>
                </mxCell>
                <mxCell id="149" value="user" style="shape=umlActor;verticalLabelPosition=bottom;verticalAlign=top;html=1;outlineConnect=0;" parent="1" vertex="1">
                    <mxGeometry x="-470" y="-1034.5" width="30" height="60" as="geometry"/>
                </mxCell>
                <mxCell id="150" value="Admin" style="shape=umlActor;verticalLabelPosition=bottom;verticalAlign=top;html=1;outlineConnect=0;" parent="1" vertex="1">
                    <mxGeometry x="-490" y="-390" width="30" height="60" as="geometry"/>
                </mxCell>
                <mxCell id="155" style="edgeStyle=elbowEdgeStyle;html=1;exitX=0.5;exitY=0;exitDx=0;exitDy=0;exitPerimeter=0;" parent="1" source="151" edge="1">
                    <mxGeometry relative="1" as="geometry">
                        <mxPoint x="-440" y="-960" as="targetPoint"/>
                    </mxGeometry>
                </mxCell>
                <mxCell id="151" value="client" style="shape=umlActor;verticalLabelPosition=bottom;verticalAlign=top;html=1;outlineConnect=0;" parent="1" vertex="1">
                    <mxGeometry x="-440" y="-891.5" width="30" height="60" as="geometry"/>
                </mxCell>
                <mxCell id="154" style="edgeStyle=elbowEdgeStyle;html=1;exitX=0.5;exitY=0;exitDx=0;exitDy=0;exitPerimeter=0;" parent="1" source="152" edge="1">
                    <mxGeometry relative="1" as="geometry">
                        <mxPoint x="-470" y="-960" as="targetPoint"/>
                        <Array as="points">
                            <mxPoint x="-480" y="-810"/>
                        </Array>
                    </mxGeometry>
                </mxCell>
                <mxCell id="152" value="guest" style="shape=umlActor;verticalLabelPosition=bottom;verticalAlign=top;html=1;outlineConnect=0;" parent="1" vertex="1">
                    <mxGeometry x="-520" y="-650" width="30" height="60" as="geometry"/>
                </mxCell>
                <mxCell id="156" value="Book appointment" style="ellipse;whiteSpace=wrap;html=1;" parent="1" vertex="1">
                    <mxGeometry x="-360" y="-1090" width="170" height="40" as="geometry"/>
                </mxCell>
                <mxCell id="171" style="edgeStyle=elbowEdgeStyle;html=1;exitX=0;exitY=0.5;exitDx=0;exitDy=0;entryX=1;entryY=0;entryDx=0;entryDy=0;" parent="1" source="157" target="170" edge="1">
                    <mxGeometry relative="1" as="geometry"/>
                </mxCell>
                <mxCell id="157" value="add international car" style="ellipse;whiteSpace=wrap;html=1;" parent="1" vertex="1">
                    <mxGeometry x="-210" y="-1034.5" width="140" height="40" as="geometry"/>
                </mxCell>
                <mxCell id="158" value="signup" style="ellipse;whiteSpace=wrap;html=1;" parent="1" vertex="1">
                    <mxGeometry x="-340" y="-671.5" width="80" height="40" as="geometry"/>
                </mxCell>
                <mxCell id="159" value="login" style="ellipse;whiteSpace=wrap;html=1;" parent="1" vertex="1">
                    <mxGeometry x="-355" y="-724.61" width="55" height="40" as="geometry"/>
                </mxCell>
                <mxCell id="160" value="delete car" style="ellipse;whiteSpace=wrap;html=1;" parent="1" vertex="1">
                    <mxGeometry x="-345" y="-884.61" width="95" height="40" as="geometry"/>
                </mxCell>
                <mxCell id="161" value="delete rdv" style="ellipse;whiteSpace=wrap;html=1;" parent="1" vertex="1">
                    <mxGeometry x="-323.75" y="-796" width="91.25" height="40" as="geometry"/>
                </mxCell>
                <mxCell id="162" value="confirm" style="ellipse;whiteSpace=wrap;html=1;" parent="1" vertex="1">
                    <mxGeometry x="200" y="-974.5" width="105" height="40" as="geometry"/>
                </mxCell>
                <mxCell id="163" value="select service" style="ellipse;whiteSpace=wrap;html=1;" parent="1" vertex="1">
                    <mxGeometry x="145" y="-1050" width="125" height="40" as="geometry"/>
                </mxCell>
                <mxCell id="164" value="select agency" style="ellipse;whiteSpace=wrap;html=1;" parent="1" vertex="1">
                    <mxGeometry x="10" y="-1090" width="135" height="40" as="geometry"/>
                </mxCell>
                <mxCell id="165" value="enter car data" style="ellipse;whiteSpace=wrap;html=1;" parent="1" vertex="1">
                    <mxGeometry x="-150" y="-1090" width="135" height="40" as="geometry"/>
                </mxCell>
                <mxCell id="166" value="update rdv" style="ellipse;whiteSpace=wrap;html=1;" parent="1" vertex="1">
                    <mxGeometry x="-340" y="-841.5" width="107.5" height="40" as="geometry"/>
                </mxCell>
                <mxCell id="167" value="view all rdvs" style="ellipse;whiteSpace=wrap;html=1;" parent="1" vertex="1">
                    <mxGeometry x="-355" y="-931.5" width="115" height="40" as="geometry"/>
                </mxCell>
                <mxCell id="168" value="view all cars" style="ellipse;whiteSpace=wrap;html=1;" parent="1" vertex="1">
                    <mxGeometry x="-355" y="-974.61" width="115" height="40" as="geometry"/>
                </mxCell>
                <mxCell id="172" style="edgeStyle=elbowEdgeStyle;html=1;exitX=0;exitY=0.5;exitDx=0;exitDy=0;entryX=1;entryY=0.5;entryDx=0;entryDy=0;" parent="1" source="169" target="170" edge="1">
                    <mxGeometry relative="1" as="geometry"/>
                </mxCell>
                <mxCell id="169" value="add local car" style="ellipse;whiteSpace=wrap;html=1;" parent="1" vertex="1">
                    <mxGeometry x="-195" y="-984.5" width="110" height="40" as="geometry"/>
                </mxCell>
                <mxCell id="170" value="add car" style="ellipse;whiteSpace=wrap;html=1;" parent="1" vertex="1">
                    <mxGeometry x="-330" y="-1014.5" width="95" height="40" as="geometry"/>
                </mxCell>
                <mxCell id="174" value="update service" style="ellipse;whiteSpace=wrap;html=1;" parent="1" vertex="1">
                    <mxGeometry x="-185" y="-881.5" width="115" height="40" as="geometry"/>
                </mxCell>
                <mxCell id="175" value="update date" style="ellipse;whiteSpace=wrap;html=1;" parent="1" vertex="1">
                    <mxGeometry x="-180" y="-830" width="105" height="40" as="geometry"/>
                </mxCell>
                <mxCell id="176" value="update rdv status" style="ellipse;whiteSpace=wrap;html=1;" parent="1" vertex="1">
                    <mxGeometry x="-250.25" y="-324.61" width="125" height="40" as="geometry"/>
                </mxCell>
                <mxCell id="177" value="get all users" style="ellipse;whiteSpace=wrap;html=1;" parent="1" vertex="1">
                    <mxGeometry x="-267.75" y="-254.61" width="113.75" height="40" as="geometry"/>
                </mxCell>
                <mxCell id="179" value="update profile" style="ellipse;whiteSpace=wrap;html=1;" parent="1" vertex="1">
                    <mxGeometry x="-341.25" y="-620" width="110" height="40" as="geometry"/>
                </mxCell>
                <mxCell id="180" value="get all rdvs" style="ellipse;whiteSpace=wrap;html=1;" parent="1" vertex="1">
                    <mxGeometry x="-212.75" y="-394.61" width="112.5" height="40" as="geometry"/>
                </mxCell>
                <mxCell id="197" value="update agency" style="ellipse;whiteSpace=wrap;html=1;" parent="1" vertex="1">
                    <mxGeometry x="-180" y="-781.5" width="115" height="40" as="geometry"/>
                </mxCell>
                <mxCell id="199" value="" style="endArrow=none;dashed=1;html=1;entryX=0;entryY=0.5;entryDx=0;entryDy=0;exitX=0.77;exitY=0.133;exitDx=0;exitDy=0;exitPerimeter=0;" parent="1" source="203" target="174" edge="1">
                    <mxGeometry width="50" height="50" relative="1" as="geometry">
                        <mxPoint x="-235" y="-828" as="sourcePoint"/>
                        <mxPoint x="-185" y="-878" as="targetPoint"/>
                    </mxGeometry>
                </mxCell>
                <mxCell id="200" value="" style="endArrow=none;dashed=1;html=1;entryX=0;entryY=0.5;entryDx=0;entryDy=0;" parent="1" target="175" edge="1">
                    <mxGeometry width="50" height="50" relative="1" as="geometry">
                        <mxPoint x="-232.5" y="-820" as="sourcePoint"/>
                        <mxPoint x="-182.5" y="-870" as="targetPoint"/>
                    </mxGeometry>
                </mxCell>
                <mxCell id="201" value="" style="endArrow=none;dashed=1;html=1;entryX=0;entryY=0.5;entryDx=0;entryDy=0;" parent="1" source="204" target="197" edge="1">
                    <mxGeometry width="50" height="50" relative="1" as="geometry">
                        <mxPoint x="-240" y="-810" as="sourcePoint"/>
                        <mxPoint x="-190" y="-860" as="targetPoint"/>
                    </mxGeometry>
                </mxCell>
                <mxCell id="202" value="&lt;font style=&quot;font-size: 8px;&quot;&gt;&amp;lt;&amp;lt;extends&amp;gt;&amp;gt;&lt;/font&gt;" style="text;strokeColor=none;fillColor=none;align=left;verticalAlign=middle;spacingLeft=4;spacingRight=4;overflow=hidden;points=[[0,0.5],[1,0.5]];portConstraint=eastwest;rotatable=0;whiteSpace=wrap;html=1;" parent="1" vertex="1">
                    <mxGeometry x="-232.5" y="-836.5" width="60" height="20" as="geometry"/>
                </mxCell>
                <mxCell id="205" value="" style="endArrow=none;dashed=1;html=1;entryX=0.322;entryY=0.036;entryDx=0;entryDy=0;entryPerimeter=0;" parent="1" target="204" edge="1" source="640">
                    <mxGeometry width="50" height="50" relative="1" as="geometry">
                        <mxPoint x="-240" y="-810" as="sourcePoint"/>
                        <mxPoint x="-180" y="-761" as="targetPoint"/>
                    </mxGeometry>
                </mxCell>
                <mxCell id="204" value="&lt;font style=&quot;font-size: 8px;&quot;&gt;&amp;lt;&amp;lt;extends&amp;gt;&amp;gt;&lt;/font&gt;" style="text;strokeColor=none;fillColor=none;align=left;verticalAlign=middle;spacingLeft=4;spacingRight=4;overflow=hidden;points=[[0,0.5],[1,0.5]];portConstraint=eastwest;rotatable=0;whiteSpace=wrap;html=1;" parent="1" vertex="1">
                    <mxGeometry x="-240" y="-796" width="60" height="20" as="geometry"/>
                </mxCell>
                <mxCell id="206" value="" style="endArrow=none;dashed=1;html=1;entryX=0.354;entryY=0.993;entryDx=0;entryDy=0;entryPerimeter=0;" parent="1" target="203" edge="1" source="636">
                    <mxGeometry width="50" height="50" relative="1" as="geometry">
                        <mxPoint x="-235" y="-828" as="sourcePoint"/>
                        <mxPoint x="-185" y="-861" as="targetPoint"/>
                    </mxGeometry>
                </mxCell>
                <mxCell id="203" value="&lt;font style=&quot;font-size: 8px;&quot;&gt;&amp;lt;&amp;lt;extends&amp;gt;&amp;gt;&lt;/font&gt;" style="text;strokeColor=none;fillColor=none;align=left;verticalAlign=middle;spacingLeft=4;spacingRight=4;overflow=hidden;points=[[0,0.5],[1,0.5]];portConstraint=eastwest;rotatable=0;whiteSpace=wrap;html=1;" parent="1" vertex="1">
                    <mxGeometry x="-245" y="-856.5" width="60" height="20" as="geometry"/>
                </mxCell>
                <mxCell id="212" value="" style="endArrow=none;dashed=1;html=1;" parent="1" source="225" edge="1">
                    <mxGeometry width="50" height="50" relative="1" as="geometry">
                        <mxPoint x="-190" y="-1071" as="sourcePoint"/>
                        <mxPoint x="-150" y="-1071" as="targetPoint"/>
                    </mxGeometry>
                </mxCell>
                <mxCell id="213" value="" style="endArrow=none;dashed=1;html=1;entryX=0;entryY=0.5;entryDx=0;entryDy=0;" parent="1" source="229" target="164" edge="1">
                    <mxGeometry width="50" height="50" relative="1" as="geometry">
                        <mxPoint x="-15" y="-1069.8999999999999" as="sourcePoint"/>
                        <mxPoint x="5" y="-1070.1399999999999" as="targetPoint"/>
                    </mxGeometry>
                </mxCell>
                <mxCell id="214" value="" style="endArrow=none;dashed=1;html=1;exitX=1;exitY=0.5;exitDx=0;exitDy=0;" parent="1" edge="1">
                    <mxGeometry width="50" height="50" relative="1" as="geometry">
                        <mxPoint x="-40" y="-1015" as="sourcePoint"/>
                        <mxPoint x="-40" y="-1014.5" as="targetPoint"/>
                    </mxGeometry>
                </mxCell>
                <mxCell id="215" value="" style="endArrow=none;dashed=1;html=1;" parent="1" edge="1">
                    <mxGeometry width="50" height="50" relative="1" as="geometry">
                        <mxPoint x="-40.56737588652459" y="-963.2836879432623" as="sourcePoint"/>
                        <mxPoint x="-40" y="-963.3199999999999" as="targetPoint"/>
                    </mxGeometry>
                </mxCell>
                <mxCell id="219" value="&lt;font style=&quot;font-size: 8px;&quot;&gt;&amp;lt;&amp;lt;include&amp;gt;&amp;gt;&lt;/font&gt;" style="text;strokeColor=none;fillColor=none;align=left;verticalAlign=middle;spacingLeft=4;spacingRight=4;overflow=hidden;points=[[0,0.5],[1,0.5]];portConstraint=eastwest;rotatable=0;whiteSpace=wrap;html=1;" parent="1" vertex="1">
                    <mxGeometry x="247.5" y="-1014.5" width="60" height="20" as="geometry"/>
                </mxCell>
                <mxCell id="222" value="&lt;font style=&quot;font-size: 8px;&quot;&gt;&amp;lt;&amp;lt;include&amp;gt;&amp;gt;&lt;/font&gt;" style="text;strokeColor=none;fillColor=none;align=left;verticalAlign=middle;spacingLeft=4;spacingRight=4;overflow=hidden;points=[[0,0.5],[1,0.5]];portConstraint=eastwest;rotatable=0;whiteSpace=wrap;html=1;" parent="1" vertex="1">
                    <mxGeometry x="-195" y="-1100" width="60" height="20" as="geometry"/>
                </mxCell>
                <mxCell id="223" value="&lt;font style=&quot;font-size: 8px;&quot;&gt;&amp;lt;&amp;lt;include&amp;gt;&amp;gt;&lt;/font&gt;" style="text;strokeColor=none;fillColor=none;align=left;verticalAlign=middle;spacingLeft=4;spacingRight=4;overflow=hidden;points=[[0,0.5],[1,0.5]];portConstraint=eastwest;rotatable=0;whiteSpace=wrap;html=1;" parent="1" vertex="1">
                    <mxGeometry x="-30" y="-1100" width="60" height="20" as="geometry"/>
                </mxCell>
                <mxCell id="224" value="&lt;font style=&quot;font-size: 8px;&quot;&gt;&amp;lt;&amp;lt;include&amp;gt;&amp;gt;&lt;/font&gt;" style="text;strokeColor=none;fillColor=none;align=left;verticalAlign=middle;spacingLeft=4;spacingRight=4;overflow=hidden;points=[[0,0.5],[1,0.5]];portConstraint=eastwest;rotatable=0;whiteSpace=wrap;html=1;" parent="1" vertex="1">
                    <mxGeometry x="160" y="-1080" width="60" height="20" as="geometry"/>
                </mxCell>
                <mxCell id="226" value="" style="endArrow=none;dashed=1;html=1;" parent="1" target="225" edge="1">
                    <mxGeometry width="50" height="50" relative="1" as="geometry">
                        <mxPoint x="-190" y="-1071" as="sourcePoint"/>
                        <mxPoint x="-150" y="-1071" as="targetPoint"/>
                    </mxGeometry>
                </mxCell>
                <mxCell id="225" value="" style="triangle;whiteSpace=wrap;html=1;" parent="1" vertex="1">
                    <mxGeometry x="-160" y="-1075" width="10" height="10" as="geometry"/>
                </mxCell>
                <mxCell id="230" value="" style="endArrow=none;dashed=1;html=1;entryX=0;entryY=0.5;entryDx=0;entryDy=0;" parent="1" target="229" edge="1">
                    <mxGeometry width="50" height="50" relative="1" as="geometry">
                        <mxPoint x="-15" y="-1069.8999999999999" as="sourcePoint"/>
                        <mxPoint x="10" y="-1070" as="targetPoint"/>
                    </mxGeometry>
                </mxCell>
                <mxCell id="229" value="" style="triangle;whiteSpace=wrap;html=1;" parent="1" vertex="1">
                    <mxGeometry y="-1075" width="10" height="10" as="geometry"/>
                </mxCell>
                <mxCell id="232" value="" style="endArrow=none;dashed=1;html=1;entryX=0;entryY=0.5;entryDx=0;entryDy=0;" parent="1" target="227" edge="1">
                    <mxGeometry width="50" height="50" relative="1" as="geometry">
                        <mxPoint x="145" y="-1070" as="sourcePoint"/>
                        <mxPoint x="181" y="-1049" as="targetPoint"/>
                    </mxGeometry>
                </mxCell>
                <mxCell id="227" value="" style="triangle;whiteSpace=wrap;html=1;direction=south;rotation=-45;" parent="1" vertex="1">
                    <mxGeometry x="178.5" y="-1060" width="10" height="10" as="geometry"/>
                </mxCell>
                <mxCell id="233" value="" style="endArrow=none;dashed=1;html=1;entryX=0.5;entryY=0;entryDx=0;entryDy=0;exitX=0.799;exitY=0.901;exitDx=0;exitDy=0;exitPerimeter=0;" parent="1" source="163" target="228" edge="1">
                    <mxGeometry width="50" height="50" relative="1" as="geometry">
                        <mxPoint x="245" y="-1014" as="sourcePoint"/>
                        <mxPoint x="272" y="-994" as="targetPoint"/>
                    </mxGeometry>
                </mxCell>
                <mxCell id="228" value="" style="triangle;whiteSpace=wrap;html=1;direction=south;" parent="1" vertex="1">
                    <mxGeometry x="247.5" y="-984.5" width="10" height="10" as="geometry"/>
                </mxCell>
                <mxCell id="239" value="" style="endArrow=none;html=1;entryX=0.033;entryY=0.71;entryDx=0;entryDy=0;entryPerimeter=0;" parent="1" target="156" edge="1">
                    <mxGeometry width="50" height="50" relative="1" as="geometry">
                        <mxPoint x="-430" y="-1014.5" as="sourcePoint"/>
                        <mxPoint x="-363.75" y="-1054.5" as="targetPoint"/>
                    </mxGeometry>
                </mxCell>
                <mxCell id="240" value="" style="endArrow=none;html=1;" parent="1" edge="1">
                    <mxGeometry width="50" height="50" relative="1" as="geometry">
                        <mxPoint x="-410" y="-900" as="sourcePoint"/>
                        <mxPoint x="-330" y="-991.5" as="targetPoint"/>
                    </mxGeometry>
                </mxCell>
                <mxCell id="241" value="" style="endArrow=none;html=1;entryX=0;entryY=0.5;entryDx=0;entryDy=0;" parent="1" target="166" edge="1">
                    <mxGeometry width="50" height="50" relative="1" as="geometry">
                        <mxPoint x="-410" y="-850" as="sourcePoint"/>
                        <mxPoint x="-330" y="-941.5" as="targetPoint"/>
                    </mxGeometry>
                </mxCell>
                <mxCell id="242" value="" style="endArrow=none;html=1;entryX=0;entryY=0.5;entryDx=0;entryDy=0;" parent="1" target="161" edge="1">
                    <mxGeometry width="50" height="50" relative="1" as="geometry">
                        <mxPoint x="-410" y="-841.5" as="sourcePoint"/>
                        <mxPoint x="-330" y="-933" as="targetPoint"/>
                    </mxGeometry>
                </mxCell>
                <mxCell id="243" value="" style="endArrow=none;html=1;entryX=0;entryY=0.5;entryDx=0;entryDy=0;" parent="1" target="160" edge="1">
                    <mxGeometry width="50" height="50" relative="1" as="geometry">
                        <mxPoint x="-400" y="-854.61" as="sourcePoint"/>
                        <mxPoint x="-326.25" y="-913.5" as="targetPoint"/>
                    </mxGeometry>
                </mxCell>
                <mxCell id="244" value="" style="endArrow=none;html=1;entryX=0;entryY=0;entryDx=0;entryDy=0;" parent="1" target="159" edge="1">
                    <mxGeometry width="50" height="50" relative="1" as="geometry">
                        <mxPoint x="-410" y="-816.5" as="sourcePoint"/>
                        <mxPoint x="-330" y="-908" as="targetPoint"/>
                    </mxGeometry>
                </mxCell>
                <mxCell id="245" value="" style="endArrow=none;html=1;entryX=0;entryY=0.5;entryDx=0;entryDy=0;" parent="1" target="158" edge="1">
                    <mxGeometry width="50" height="50" relative="1" as="geometry">
                        <mxPoint x="-410" y="-805.75" as="sourcePoint"/>
                        <mxPoint x="-330" y="-897.25" as="targetPoint"/>
                    </mxGeometry>
                </mxCell>
                <mxCell id="246" value="" style="endArrow=none;html=1;entryX=0;entryY=0.5;entryDx=0;entryDy=0;" parent="1" target="179" edge="1">
                    <mxGeometry width="50" height="50" relative="1" as="geometry">
                        <mxPoint x="-420" y="-801.5" as="sourcePoint"/>
                        <mxPoint x="-340" y="-893" as="targetPoint"/>
                    </mxGeometry>
                </mxCell>
                <mxCell id="247" value="" style="endArrow=none;html=1;entryX=0;entryY=0.5;entryDx=0;entryDy=0;" parent="1" target="167" edge="1">
                    <mxGeometry width="50" height="50" relative="1" as="geometry">
                        <mxPoint x="-410" y="-856.5" as="sourcePoint"/>
                        <mxPoint x="-330" y="-948" as="targetPoint"/>
                    </mxGeometry>
                </mxCell>
                <mxCell id="248" value="" style="endArrow=none;html=1;entryX=0;entryY=0.5;entryDx=0;entryDy=0;" parent="1" target="168" edge="1">
                    <mxGeometry width="50" height="50" relative="1" as="geometry">
                        <mxPoint x="-406.25" y="-866.5" as="sourcePoint"/>
                        <mxPoint x="-326.25" y="-958" as="targetPoint"/>
                    </mxGeometry>
                </mxCell>
                <mxCell id="251" value="" style="endArrow=none;dashed=1;html=1;" parent="1" edge="1">
                    <mxGeometry width="50" height="50" relative="1" as="geometry">
                        <mxPoint x="-30.567375886524587" y="-953.2836879432624" as="sourcePoint"/>
                        <mxPoint x="-30" y="-953.3199999999999" as="targetPoint"/>
                    </mxGeometry>
                </mxCell>
                <mxCell id="257" value="" style="endArrow=none;dashed=1;html=1;" parent="1" edge="1">
                    <mxGeometry width="50" height="50" relative="1" as="geometry">
                        <mxPoint x="-210.56737588652436" y="-669.7836879432621" as="sourcePoint"/>
                        <mxPoint x="-210" y="-669.8199999999999" as="targetPoint"/>
                    </mxGeometry>
                </mxCell>
                <mxCell id="262" value="" style="endArrow=none;html=1;entryX=0;entryY=1;entryDx=0;entryDy=0;" parent="1" target="282" edge="1">
                    <mxGeometry width="50" height="50" relative="1" as="geometry">
                        <mxPoint x="-450" y="-370" as="sourcePoint"/>
                        <mxPoint x="-336.24999999999295" y="-433.25" as="targetPoint"/>
                    </mxGeometry>
                </mxCell>
                <mxCell id="263" value="" style="endArrow=none;html=1;entryX=0;entryY=0.5;entryDx=0;entryDy=0;" parent="1" target="180" edge="1">
                    <mxGeometry width="50" height="50" relative="1" as="geometry">
                        <mxPoint x="-440" y="-350" as="sourcePoint"/>
                        <mxPoint x="-340" y="-413.25" as="targetPoint"/>
                    </mxGeometry>
                </mxCell>
                <mxCell id="264" value="" style="endArrow=none;html=1;entryX=0;entryY=0.5;entryDx=0;entryDy=0;" parent="1" target="177" edge="1">
                    <mxGeometry width="50" height="50" relative="1" as="geometry">
                        <mxPoint x="-454" y="-320" as="sourcePoint"/>
                        <mxPoint x="-340" y="-400" as="targetPoint"/>
                    </mxGeometry>
                </mxCell>
                <mxCell id="265" value="" style="endArrow=none;html=1;entryX=0;entryY=0.5;entryDx=0;entryDy=0;" parent="1" target="176" edge="1">
                    <mxGeometry width="50" height="50" relative="1" as="geometry">
                        <mxPoint x="-450" y="-340" as="sourcePoint"/>
                        <mxPoint x="-340" y="-379.75" as="targetPoint"/>
                    </mxGeometry>
                </mxCell>
                <mxCell id="268" value="&lt;font style=&quot;font-size: 24px;&quot;&gt;Renault Booking&lt;/font&gt;" style="text;html=1;align=center;verticalAlign=middle;whiteSpace=wrap;rounded=0;" parent="1" vertex="1">
                    <mxGeometry x="-100" y="-1170" width="200" height="30" as="geometry"/>
                </mxCell>
                <mxCell id="276" value="create user" style="ellipse;whiteSpace=wrap;html=1;" parent="1" vertex="1">
                    <mxGeometry x="-282.5" y="-174.60999999999999" width="115" height="40" as="geometry"/>
                </mxCell>
                <mxCell id="277" value="delete user" style="ellipse;whiteSpace=wrap;html=1;" parent="1" vertex="1">
                    <mxGeometry x="-215" y="-214.60999999999999" width="115" height="40" as="geometry"/>
                </mxCell>
                <mxCell id="278" value="update user" style="ellipse;whiteSpace=wrap;html=1;" parent="1" vertex="1">
                    <mxGeometry x="-255" y="-124.61" width="115" height="40" as="geometry"/>
                </mxCell>
                <mxCell id="280" value="create car" style="ellipse;whiteSpace=wrap;html=1;" parent="1" vertex="1">
                    <mxGeometry x="-150" y="-434.61" width="115" height="40" as="geometry"/>
                </mxCell>
                <mxCell id="281" value="delete rdv" style="ellipse;whiteSpace=wrap;html=1;" parent="1" vertex="1">
                    <mxGeometry x="-144" y="-354.61" width="115" height="40" as="geometry"/>
                </mxCell>
                <mxCell id="282" value="get all cars" style="ellipse;whiteSpace=wrap;html=1;" parent="1" vertex="1">
                    <mxGeometry x="-227.5" y="-544.61" width="115" height="40" as="geometry"/>
                </mxCell>
                <mxCell id="283" value="delete car" style="ellipse;whiteSpace=wrap;html=1;" parent="1" vertex="1">
                    <mxGeometry x="-237.5" y="-464.61" width="115" height="40" as="geometry"/>
                </mxCell>
                <mxCell id="284" value="update car" style="ellipse;whiteSpace=wrap;html=1;" parent="1" vertex="1">
                    <mxGeometry x="-169" y="-504.61" width="115" height="40" as="geometry"/>
                </mxCell>
                <mxCell id="285" value="" style="endArrow=none;html=1;entryX=0;entryY=0.5;entryDx=0;entryDy=0;" parent="1" target="284" edge="1">
                    <mxGeometry width="50" height="50" relative="1" as="geometry">
                        <mxPoint x="-451.25" y="-360.5" as="sourcePoint"/>
                        <mxPoint x="-326.25" y="-501.5" as="targetPoint"/>
                    </mxGeometry>
                </mxCell>
                <mxCell id="286" value="" style="endArrow=none;html=1;entryX=0;entryY=0.5;entryDx=0;entryDy=0;" parent="1" target="280" edge="1">
                    <mxGeometry width="50" height="50" relative="1" as="geometry">
                        <mxPoint x="-450" y="-350" as="sourcePoint"/>
                        <mxPoint x="-326.25" y="-481" as="targetPoint"/>
                    </mxGeometry>
                </mxCell>
                <mxCell id="287" value="" style="endArrow=none;html=1;entryX=0;entryY=1;entryDx=0;entryDy=0;" parent="1" target="283" edge="1">
                    <mxGeometry width="50" height="50" relative="1" as="geometry">
                        <mxPoint x="-440" y="-360" as="sourcePoint"/>
                        <mxPoint x="-326.25" y="-491.5" as="targetPoint"/>
                    </mxGeometry>
                </mxCell>
                <mxCell id="288" value="create rdv" style="ellipse;whiteSpace=wrap;html=1;" parent="1" vertex="1">
                    <mxGeometry x="-166.5" y="-284.61" width="115" height="40" as="geometry"/>
                </mxCell>
                <mxCell id="289" value="" style="endArrow=none;html=1;entryX=0;entryY=0.5;entryDx=0;entryDy=0;" parent="1" target="288" edge="1">
                    <mxGeometry width="50" height="50" relative="1" as="geometry">
                        <mxPoint x="-455" y="-330" as="sourcePoint"/>
                        <mxPoint x="-265" y="-371" as="targetPoint"/>
                    </mxGeometry>
                </mxCell>
                <mxCell id="290" value="" style="endArrow=none;html=1;entryX=0;entryY=0.5;entryDx=0;entryDy=0;" parent="1" target="281" edge="1">
                    <mxGeometry width="50" height="50" relative="1" as="geometry">
                        <mxPoint x="-420" y="-350" as="sourcePoint"/>
                        <mxPoint x="-260" y="-381" as="targetPoint"/>
                    </mxGeometry>
                </mxCell>
                <mxCell id="291" value="" style="endArrow=none;html=1;entryX=0;entryY=0.5;entryDx=0;entryDy=0;" parent="1" target="277" edge="1">
                    <mxGeometry width="50" height="50" relative="1" as="geometry">
                        <mxPoint x="-460" y="-309" as="sourcePoint"/>
                        <mxPoint x="-270" y="-350" as="targetPoint"/>
                    </mxGeometry>
                </mxCell>
                <mxCell id="292" value="" style="endArrow=none;html=1;entryX=0;entryY=0.5;entryDx=0;entryDy=0;" parent="1" target="278" edge="1">
                    <mxGeometry width="50" height="50" relative="1" as="geometry">
                        <mxPoint x="-480" y="-290" as="sourcePoint"/>
                        <mxPoint x="-290" y="-331" as="targetPoint"/>
                        <Array as="points"/>
                    </mxGeometry>
                </mxCell>
                <mxCell id="293" value="" style="endArrow=none;html=1;entryX=0;entryY=0.5;entryDx=0;entryDy=0;" parent="1" target="276" edge="1">
                    <mxGeometry width="50" height="50" relative="1" as="geometry">
                        <mxPoint x="-470" y="-300" as="sourcePoint"/>
                        <mxPoint x="-280" y="-341" as="targetPoint"/>
                    </mxGeometry>
                </mxCell>
                <mxCell id="295" value="&lt;font style=&quot;font-size: 14px;&quot;&gt;*&lt;/font&gt;" style="text;html=1;align=center;verticalAlign=middle;whiteSpace=wrap;rounded=0;" parent="1" vertex="1">
                    <mxGeometry x="166" y="368.5" width="12.5" height="1.5" as="geometry"/>
                </mxCell>
                <mxCell id="296" value="&lt;font style=&quot;font-size: 12px;&quot;&gt;1&lt;/font&gt;" style="text;html=1;align=center;verticalAlign=middle;whiteSpace=wrap;rounded=0;" parent="1" vertex="1">
                    <mxGeometry x="45.379999999999995" y="395" width="12.5" height="20" as="geometry"/>
                </mxCell>
                <mxCell id="297" value="&lt;font style=&quot;font-size: 12px;&quot;&gt;1&lt;/font&gt;" style="text;html=1;align=center;verticalAlign=middle;whiteSpace=wrap;rounded=0;" parent="1" vertex="1">
                    <mxGeometry x="16" y="317.5" width="20" height="20" as="geometry"/>
                </mxCell>
                <mxCell id="298" value="&lt;font style=&quot;font-size: 14px;&quot;&gt;*&lt;/font&gt;" style="text;html=1;align=center;verticalAlign=middle;whiteSpace=wrap;rounded=0;" parent="1" vertex="1">
                    <mxGeometry x="129" y="488.5" width="12.5" height="1.5" as="geometry"/>
                </mxCell>
                <mxCell id="299" value="&lt;font style=&quot;font-size: 12px;&quot;&gt;1&lt;/font&gt;" style="text;html=1;align=center;verticalAlign=middle;whiteSpace=wrap;rounded=0;" parent="1" vertex="1">
                    <mxGeometry x="216" y="427" width="12.5" height="20" as="geometry"/>
                </mxCell>
                <mxCell id="300" value="&lt;font style=&quot;font-size: 14px;&quot;&gt;*&lt;/font&gt;" style="text;html=1;align=center;verticalAlign=middle;whiteSpace=wrap;rounded=0;" parent="1" vertex="1">
                    <mxGeometry x="216" y="490" width="12.5" height="1.5" as="geometry"/>
                </mxCell>
                <mxCell id="301" value="&lt;font style=&quot;font-size: 12px;&quot;&gt;1&lt;/font&gt;" style="text;html=1;align=center;verticalAlign=middle;whiteSpace=wrap;rounded=0;" parent="1" vertex="1">
                    <mxGeometry x="216" y="262.5" width="2.5" height="14.5" as="geometry"/>
                </mxCell>
                <mxCell id="303" value="&lt;font style=&quot;font-size: 14px;&quot;&gt;*&lt;/font&gt;" style="text;html=1;align=center;verticalAlign=middle;whiteSpace=wrap;rounded=0;" parent="1" vertex="1">
                    <mxGeometry x="216" y="318.5" width="2.5" height="1.5" as="geometry"/>
                </mxCell>
                <mxCell id="304" value="&lt;font style=&quot;font-size: 14px;&quot;&gt;*&lt;/font&gt;" style="text;html=1;align=center;verticalAlign=middle;whiteSpace=wrap;rounded=0;" parent="1" vertex="1">
                    <mxGeometry x="359.75" y="245.5" width="12.5" height="1.5" as="geometry"/>
                </mxCell>
                <mxCell id="306" value="" style="endArrow=none;html=1;exitX=1;exitY=0.5;exitDx=0;exitDy=0;entryX=0;entryY=0.5;entryDx=0;entryDy=0;" parent="1" source="87" target="305" edge="1">
                    <mxGeometry width="50" height="50" relative="1" as="geometry">
                        <mxPoint x="259" y="251" as="sourcePoint"/>
                        <mxPoint x="296" y="251" as="targetPoint"/>
                    </mxGeometry>
                </mxCell>
                <mxCell id="305" value="&lt;font style=&quot;font-size: 14px;&quot;&gt;*&lt;/font&gt;" style="text;html=1;align=center;verticalAlign=middle;whiteSpace=wrap;rounded=0;" parent="1" vertex="1">
                    <mxGeometry x="258.5" y="244" width="12.5" height="1.5" as="geometry"/>
                </mxCell>
                <mxCell id="307" value="&lt;font style=&quot;font-size: 12px;&quot;&gt;1&lt;/font&gt;" style="text;html=1;align=center;verticalAlign=middle;whiteSpace=wrap;rounded=0;" parent="1" vertex="1">
                    <mxGeometry x="329.13" y="538.75" width="8.75" height="11.5" as="geometry"/>
                </mxCell>
                <mxCell id="309" value="&lt;font style=&quot;font-size: 14px;&quot;&gt;*&lt;/font&gt;" style="text;html=1;align=center;verticalAlign=middle;whiteSpace=wrap;rounded=0;" parent="1" vertex="1">
                    <mxGeometry x="253.5" y="547" width="12.5" height="1.5" as="geometry"/>
                </mxCell>
                <mxCell id="310" value="&lt;font style=&quot;font-size: 12px;&quot;&gt;1&lt;/font&gt;" style="text;html=1;align=center;verticalAlign=middle;whiteSpace=wrap;rounded=0;" parent="1" vertex="1">
                    <mxGeometry x="363.5" y="630" width="8.75" height="11.5" as="geometry"/>
                </mxCell>
                <mxCell id="311" value="&lt;font style=&quot;font-size: 14px;&quot;&gt;*&lt;/font&gt;" style="text;html=1;align=center;verticalAlign=middle;whiteSpace=wrap;rounded=0;" parent="1" vertex="1">
                    <mxGeometry x="361.62" y="619" width="12.5" height="1.5" as="geometry"/>
                </mxCell>
                <mxCell id="312" value="&lt;font style=&quot;font-size: 14px;&quot;&gt;*&lt;/font&gt;" style="text;html=1;align=center;verticalAlign=middle;whiteSpace=wrap;rounded=0;" parent="1" vertex="1">
                    <mxGeometry x="286" y="690.5" width="12.5" height="1.5" as="geometry"/>
                </mxCell>
                <mxCell id="313" value="&lt;font style=&quot;font-size: 14px;&quot;&gt;*&lt;/font&gt;" style="text;html=1;align=center;verticalAlign=middle;whiteSpace=wrap;rounded=0;" parent="1" vertex="1">
                    <mxGeometry x="333.5" y="690.5" width="12.5" height="1.5" as="geometry"/>
                </mxCell>
                <mxCell id="315" value="User" style="shape=umlActor;verticalLabelPosition=bottom;verticalAlign=top;html=1;outlineConnect=0;" parent="1" vertex="1">
                    <mxGeometry x="-1390" y="70" width="30" height="60" as="geometry"/>
                </mxCell>
                <mxCell id="316" value="" style="ellipse;whiteSpace=wrap;html=1;aspect=fixed;" parent="1" vertex="1">
                    <mxGeometry x="-1167.5" y="105" width="30" height="30" as="geometry"/>
                </mxCell>
                <mxCell id="317" value="" style="endArrow=none;html=1;" parent="1" edge="1">
                    <mxGeometry width="50" height="50" relative="1" as="geometry">
                        <mxPoint x="-1177.5" y="120" as="sourcePoint"/>
                        <mxPoint x="-1167.5" y="120" as="targetPoint"/>
                    </mxGeometry>
                </mxCell>
                <mxCell id="318" value="" style="endArrow=none;html=1;" parent="1" edge="1">
                    <mxGeometry width="50" height="50" relative="1" as="geometry">
                        <mxPoint x="-1177.5" y="125" as="sourcePoint"/>
                        <mxPoint x="-1177.5" y="115" as="targetPoint"/>
                    </mxGeometry>
                </mxCell>
                <mxCell id="319" value="" style="ellipse;whiteSpace=wrap;html=1;aspect=fixed;" parent="1" vertex="1">
                    <mxGeometry x="-910" y="105" width="30" height="30" as="geometry"/>
                </mxCell>
                <mxCell id="320" value="" style="endArrow=none;html=1;exitX=0.5;exitY=0;exitDx=0;exitDy=0;" parent="1" source="319" edge="1">
                    <mxGeometry width="50" height="50" relative="1" as="geometry">
                        <mxPoint x="-867.5" y="125" as="sourcePoint"/>
                        <mxPoint x="-887.5" y="110" as="targetPoint"/>
                    </mxGeometry>
                </mxCell>
                <mxCell id="321" value="" style="endArrow=none;html=1;" parent="1" edge="1">
                    <mxGeometry width="50" height="50" relative="1" as="geometry">
                        <mxPoint x="-895" y="104.81999999999994" as="sourcePoint"/>
                        <mxPoint x="-887.5" y="100" as="targetPoint"/>
                    </mxGeometry>
                </mxCell>
                <mxCell id="323" value="" style="ellipse;whiteSpace=wrap;html=1;aspect=fixed;" parent="1" vertex="1">
                    <mxGeometry x="-655" y="104.47999999999999" width="30" height="30" as="geometry"/>
                </mxCell>
                <mxCell id="324" value="" style="endArrow=none;html=1;" parent="1" edge="1">
                    <mxGeometry width="50" height="50" relative="1" as="geometry">
                        <mxPoint x="-660" y="134.84999999999988" as="sourcePoint"/>
                        <mxPoint x="-620" y="134.84999999999988" as="targetPoint"/>
                    </mxGeometry>
                </mxCell>
                <mxCell id="327" value="" style="endArrow=none;dashed=1;html=1;" parent="1" edge="1" source="620">
                    <mxGeometry width="50" height="50" relative="1" as="geometry">
                        <mxPoint x="-1378" y="1300.890362079327" as="sourcePoint"/>
                        <mxPoint x="-1378" y="160" as="targetPoint"/>
                    </mxGeometry>
                </mxCell>
                <mxCell id="328" value="" style="endArrow=none;dashed=1;html=1;" parent="1" edge="1">
                    <mxGeometry width="50" height="50" relative="1" as="geometry">
                        <mxPoint x="-637" y="990" as="sourcePoint"/>
                        <mxPoint x="-637.5" y="165" as="targetPoint"/>
                    </mxGeometry>
                </mxCell>
                <mxCell id="329" value="" style="endArrow=none;dashed=1;html=1;" parent="1" edge="1">
                    <mxGeometry width="50" height="50" relative="1" as="geometry">
                        <mxPoint x="-900" y="990" as="sourcePoint"/>
                        <mxPoint x="-900.3199999999999" y="160" as="targetPoint"/>
                    </mxGeometry>
                </mxCell>
                <mxCell id="330" value="" style="endArrow=none;dashed=1;html=1;" parent="1" edge="1" source="623">
                    <mxGeometry width="50" height="50" relative="1" as="geometry">
                        <mxPoint x="-1147" y="1300" as="sourcePoint"/>
                        <mxPoint x="-1147.5" y="160" as="targetPoint"/>
                    </mxGeometry>
                </mxCell>
                <mxCell id="331" value="&lt;u&gt;UI:AppointmentPage&lt;/u&gt;" style="text;html=1;align=center;verticalAlign=middle;whiteSpace=wrap;rounded=0;" parent="1" vertex="1">
                    <mxGeometry x="-1182.5" y="135" width="60" height="30" as="geometry"/>
                </mxCell>
                <mxCell id="332" value="&lt;u&gt;:Car&lt;/u&gt;" style="text;html=1;align=center;verticalAlign=middle;whiteSpace=wrap;rounded=0;" parent="1" vertex="1">
                    <mxGeometry x="-655" y="137.13" width="30" height="25" as="geometry"/>
                </mxCell>
                <mxCell id="333" value="&lt;u&gt;CTR:AppointmentController&lt;/u&gt;" style="text;html=1;align=center;verticalAlign=middle;whiteSpace=wrap;rounded=0;" parent="1" vertex="1">
                    <mxGeometry x="-930" y="134.63" width="60" height="30" as="geometry"/>
                </mxCell>
                <mxCell id="353" value="" style="endArrow=classic;html=1;" parent="1" edge="1">
                    <mxGeometry width="50" height="50" relative="1" as="geometry">
                        <mxPoint x="-1377.5" y="455.75" as="sourcePoint"/>
                        <mxPoint x="-1147.5" y="455.75" as="targetPoint"/>
                    </mxGeometry>
                </mxCell>
                <mxCell id="354" value="" style="endArrow=classic;html=1;" parent="1" edge="1">
                    <mxGeometry width="50" height="50" relative="1" as="geometry">
                        <mxPoint x="-1147.5" y="555.75" as="sourcePoint"/>
                        <mxPoint x="-897.5" y="555.75" as="targetPoint"/>
                    </mxGeometry>
                </mxCell>
                <mxCell id="355" value="" style="endArrow=classic;html=1;" parent="1" edge="1">
                    <mxGeometry width="50" height="50" relative="1" as="geometry">
                        <mxPoint x="-1377.5" y="545.75" as="sourcePoint"/>
                        <mxPoint x="-1147.5" y="545.75" as="targetPoint"/>
                    </mxGeometry>
                </mxCell>
                <mxCell id="356" value="" style="endArrow=classic;html=1;" parent="1" edge="1">
                    <mxGeometry width="50" height="50" relative="1" as="geometry">
                        <mxPoint x="-1150" y="465.75" as="sourcePoint"/>
                        <mxPoint x="-900" y="465.75" as="targetPoint"/>
                    </mxGeometry>
                </mxCell>
                <mxCell id="358" value="" style="endArrow=classic;html=1;" parent="1" edge="1">
                    <mxGeometry width="50" height="50" relative="1" as="geometry">
                        <mxPoint x="-900" y="625.75" as="sourcePoint"/>
                        <mxPoint x="-640" y="625.75" as="targetPoint"/>
                    </mxGeometry>
                </mxCell>
                <mxCell id="359" value="" style="endArrow=none;dashed=1;html=1;" parent="1" source="414" edge="1">
                    <mxGeometry width="50" height="50" relative="1" as="geometry">
                        <mxPoint x="-885" y="645.25" as="sourcePoint"/>
                        <mxPoint x="-635" y="645.25" as="targetPoint"/>
                    </mxGeometry>
                </mxCell>
                <mxCell id="360" value="" style="endArrow=none;dashed=1;html=1;exitX=0;exitY=0.5;exitDx=0;exitDy=0;" parent="1" source="417" edge="1">
                    <mxGeometry width="50" height="50" relative="1" as="geometry">
                        <mxPoint x="-1130" y="655.75" as="sourcePoint"/>
                        <mxPoint x="-900" y="655.75" as="targetPoint"/>
                    </mxGeometry>
                </mxCell>
                <mxCell id="361" value="ALT" style="shape=umlFrame;whiteSpace=wrap;html=1;pointerEvents=0;recursiveResize=0;container=1;collapsible=0;width=170;" parent="1" vertex="1">
                    <mxGeometry x="-1560" y="420" width="970" height="245.75" as="geometry"/>
                </mxCell>
                <mxCell id="362" value="[existing car]" style="text;html=1;" parent="361" vertex="1">
                    <mxGeometry width="100" height="20" relative="1" as="geometry">
                        <mxPoint x="20" y="40" as="offset"/>
                    </mxGeometry>
                </mxCell>
                <mxCell id="363" value="[new car]" style="line;strokeWidth=1;dashed=1;labelPosition=center;verticalLabelPosition=bottom;align=left;verticalAlign=top;spacingLeft=20;spacingTop=15;html=1;whiteSpace=wrap;" parent="361" vertex="1">
                    <mxGeometry y="85.75" width="970" height="10" as="geometry"/>
                </mxCell>
                <mxCell id="369" value="Ref" style="shape=umlFrame;whiteSpace=wrap;html=1;pointerEvents=0;recursiveResize=0;container=1;collapsible=0;width=50;" parent="1" vertex="1">
                    <mxGeometry x="-1440" y="232.32999999999998" width="980" height="45" as="geometry"/>
                </mxCell>
                <mxCell id="375" value="ALT" style="shape=umlFrame;whiteSpace=wrap;html=1;pointerEvents=0;recursiveResize=0;container=1;collapsible=0;width=170;" parent="1" vertex="1">
                    <mxGeometry x="-1630" y="221.82999999999998" width="1200" height="125" as="geometry"/>
                </mxCell>
                <mxCell id="376" value="[Guest]" style="text;html=1;" parent="375" vertex="1">
                    <mxGeometry width="100" height="20" relative="1" as="geometry">
                        <mxPoint x="10" y="25" as="offset"/>
                    </mxGeometry>
                </mxCell>
                <mxCell id="377" value="" style="line;strokeWidth=1;dashed=1;labelPosition=center;verticalLabelPosition=bottom;align=left;verticalAlign=top;spacingLeft=20;spacingTop=15;html=1;whiteSpace=wrap;" parent="375" vertex="1">
                    <mxGeometry y="57.5" width="1200" height="10" as="geometry"/>
                </mxCell>
                <mxCell id="372" value="Ref" style="shape=umlFrame;whiteSpace=wrap;html=1;pointerEvents=0;recursiveResize=0;container=1;collapsible=0;width=50;" parent="375" vertex="1">
                    <mxGeometry x="190" y="67.5" width="980" height="45" as="geometry"/>
                </mxCell>
                <mxCell id="365" value="SignIn (Nominal)" style="text;html=1;align=center;verticalAlign=middle;whiteSpace=wrap;rounded=0;" parent="372" vertex="1">
                    <mxGeometry x="430" y="7.5" width="100" height="30" as="geometry"/>
                </mxCell>
                <mxCell id="378" value="[Client]" style="text;html=1;" parent="375" vertex="1">
                    <mxGeometry x="10" y="67.5" width="100" height="20" as="geometry"/>
                </mxCell>
                <mxCell id="364" value="SignUp (Nominal)" style="text;html=1;align=center;verticalAlign=middle;whiteSpace=wrap;rounded=0;" parent="375" vertex="1">
                    <mxGeometry x="620" y="15" width="100" height="30" as="geometry"/>
                </mxCell>
                <mxCell id="384" value="" style="endArrow=none;dashed=1;html=1;" parent="1" edge="1">
                    <mxGeometry width="50" height="50" relative="1" as="geometry">
                        <mxPoint x="-890" y="495.75" as="sourcePoint"/>
                        <mxPoint x="-890" y="495.75" as="targetPoint"/>
                    </mxGeometry>
                </mxCell>
                <mxCell id="387" value="" style="endArrow=none;dashed=1;html=1;" parent="1" edge="1">
                    <mxGeometry width="50" height="50" relative="1" as="geometry">
                        <mxPoint x="-1140" y="505.75" as="sourcePoint"/>
                        <mxPoint x="-1137.5000000000002" y="503.75" as="targetPoint"/>
                    </mxGeometry>
                </mxCell>
                <mxCell id="400" value="" style="endArrow=none;dashed=1;html=1;" parent="1" edge="1">
                    <mxGeometry width="50" height="50" relative="1" as="geometry">
                        <mxPoint x="-890" y="442.58" as="sourcePoint"/>
                        <mxPoint x="-890" y="442.58" as="targetPoint"/>
                    </mxGeometry>
                </mxCell>
                <mxCell id="406" value="Select car" style="text;html=1;align=center;verticalAlign=middle;whiteSpace=wrap;rounded=0;" parent="1" vertex="1">
                    <mxGeometry x="-1335" y="425.75" width="130" height="30" as="geometry"/>
                </mxCell>
                <mxCell id="407" value="Send car with id" style="text;html=1;align=center;verticalAlign=middle;whiteSpace=wrap;rounded=0;" parent="1" vertex="1">
                    <mxGeometry x="-1085" y="444.25" width="130" height="20" as="geometry"/>
                </mxCell>
                <mxCell id="409" value="Add new car" style="text;html=1;align=center;verticalAlign=middle;whiteSpace=wrap;rounded=0;" parent="1" vertex="1">
                    <mxGeometry x="-1335" y="525.75" width="130" height="20" as="geometry"/>
                </mxCell>
                <mxCell id="410" value="Add car" style="text;html=1;align=center;verticalAlign=middle;whiteSpace=wrap;rounded=0;" parent="1" vertex="1">
                    <mxGeometry x="-1085" y="534.25" width="130" height="20" as="geometry"/>
                </mxCell>
                <mxCell id="411" value="" style="endArrow=classic;html=1;" parent="1" edge="1">
                    <mxGeometry width="50" height="50" relative="1" as="geometry">
                        <mxPoint x="-900" y="565.75" as="sourcePoint"/>
                        <mxPoint x="-900" y="605.75" as="targetPoint"/>
                        <Array as="points">
                            <mxPoint x="-850" y="565.75"/>
                            <mxPoint x="-850" y="605.75"/>
                        </Array>
                    </mxGeometry>
                </mxCell>
                <mxCell id="412" value="Verify car infos" style="text;html=1;align=center;verticalAlign=middle;whiteSpace=wrap;rounded=0;" parent="1" vertex="1">
                    <mxGeometry x="-860" y="565.75" width="80" height="30" as="geometry"/>
                </mxCell>
                <mxCell id="413" value="Save new car" style="text;html=1;align=center;verticalAlign=middle;whiteSpace=wrap;rounded=0;" parent="1" vertex="1">
                    <mxGeometry x="-820" y="600.75" width="80" height="30" as="geometry"/>
                </mxCell>
                <mxCell id="415" value="" style="endArrow=none;dashed=1;html=1;" parent="1" target="414" edge="1">
                    <mxGeometry width="50" height="50" relative="1" as="geometry">
                        <mxPoint x="-885" y="645.25" as="sourcePoint"/>
                        <mxPoint x="-635" y="645.25" as="targetPoint"/>
                    </mxGeometry>
                </mxCell>
                <mxCell id="414" value="" style="triangle;whiteSpace=wrap;html=1;rotation=-180;" parent="1" vertex="1">
                    <mxGeometry x="-900" y="635.75" width="10" height="20" as="geometry"/>
                </mxCell>
                <mxCell id="416" value="car record" style="text;html=1;align=center;verticalAlign=middle;whiteSpace=wrap;rounded=0;" parent="1" vertex="1">
                    <mxGeometry x="-820" y="624.25" width="80" height="21.5" as="geometry"/>
                </mxCell>
                <mxCell id="417" value="" style="triangle;whiteSpace=wrap;html=1;rotation=-180;" parent="1" vertex="1">
                    <mxGeometry x="-1147.5" y="645.75" width="10" height="20" as="geometry"/>
                </mxCell>
                <mxCell id="418" value="car data" style="text;html=1;align=center;verticalAlign=middle;whiteSpace=wrap;rounded=0;" parent="1" vertex="1">
                    <mxGeometry x="-1070" y="634.25" width="80" height="21.5" as="geometry"/>
                </mxCell>
                <mxCell id="424" value="" style="endArrow=classic;html=1;" parent="1" edge="1">
                    <mxGeometry width="50" height="50" relative="1" as="geometry">
                        <mxPoint x="-1147.5" y="725.75" as="sourcePoint"/>
                        <mxPoint x="-1147.5" y="765.75" as="targetPoint"/>
                        <Array as="points">
                            <mxPoint x="-1097.5" y="725.75"/>
                            <mxPoint x="-1097.5" y="765.75"/>
                        </Array>
                    </mxGeometry>
                </mxCell>
                <mxCell id="427" value="" style="endArrow=classic;html=1;" parent="1" edge="1">
                    <mxGeometry width="50" height="50" relative="1" as="geometry">
                        <mxPoint x="-1150" y="795.75" as="sourcePoint"/>
                        <mxPoint x="-900" y="795.75" as="targetPoint"/>
                    </mxGeometry>
                </mxCell>
                <mxCell id="428" value="Add rdv" style="text;html=1;align=center;verticalAlign=middle;whiteSpace=wrap;rounded=0;" parent="1" vertex="1">
                    <mxGeometry x="-1085" y="765.75" width="130" height="20" as="geometry"/>
                </mxCell>
                <mxCell id="429" value="Show rdv details" style="text;html=1;align=center;verticalAlign=middle;whiteSpace=wrap;rounded=0;" parent="1" vertex="1">
                    <mxGeometry x="-1110" y="735.75" width="80" height="30" as="geometry"/>
                </mxCell>
                <mxCell id="431" value="" style="endArrow=classic;html=1;" parent="1" edge="1">
                    <mxGeometry width="50" height="50" relative="1" as="geometry">
                        <mxPoint x="-1375" y="775.75" as="sourcePoint"/>
                        <mxPoint x="-1150" y="775.75" as="targetPoint"/>
                    </mxGeometry>
                </mxCell>
                <mxCell id="430" value="Confirm and launch creation" style="text;html=1;align=center;verticalAlign=middle;whiteSpace=wrap;rounded=0;" parent="1" vertex="1">
                    <mxGeometry x="-1347.5" y="745.75" width="180" height="30" as="geometry"/>
                </mxCell>
                <mxCell id="433" value="" style="endArrow=classic;html=1;" parent="1" edge="1">
                    <mxGeometry width="50" height="50" relative="1" as="geometry">
                        <mxPoint x="-1377.5" y="715.75" as="sourcePoint"/>
                        <mxPoint x="-1150" y="715.75" as="targetPoint"/>
                    </mxGeometry>
                </mxCell>
                <mxCell id="432" value="Initilize booking appointment" style="text;html=1;align=center;verticalAlign=middle;whiteSpace=wrap;rounded=0;" parent="1" vertex="1">
                    <mxGeometry x="-1350" y="685.75" width="180" height="30" as="geometry"/>
                </mxCell>
                <mxCell id="434" value="" style="endArrow=classic;html=1;" parent="1" edge="1">
                    <mxGeometry width="50" height="50" relative="1" as="geometry">
                        <mxPoint x="-900" y="805.75" as="sourcePoint"/>
                        <mxPoint x="-900" y="845.75" as="targetPoint"/>
                        <Array as="points">
                            <mxPoint x="-850" y="805.75"/>
                            <mxPoint x="-850" y="845.75"/>
                        </Array>
                    </mxGeometry>
                </mxCell>
                <mxCell id="435" value="Verify rdv infos" style="text;html=1;align=center;verticalAlign=middle;whiteSpace=wrap;rounded=0;" parent="1" vertex="1">
                    <mxGeometry x="-860" y="790.25" width="80" height="45.5" as="geometry"/>
                </mxCell>
                <mxCell id="438" value="" style="endArrow=classic;html=1;" parent="1" edge="1">
                    <mxGeometry width="50" height="50" relative="1" as="geometry">
                        <mxPoint x="-900" y="865.75" as="sourcePoint"/>
                        <mxPoint x="-489.56321860259436" y="866" as="targetPoint"/>
                    </mxGeometry>
                </mxCell>
                <mxCell id="437" value="Save new rdv and update car&#39;s rdvs" style="text;html=1;align=center;verticalAlign=middle;whiteSpace=wrap;rounded=0;" parent="1" vertex="1">
                    <mxGeometry x="-760" y="830" width="100" height="30" as="geometry"/>
                </mxCell>
                <mxCell id="442" value="" style="endArrow=none;dashed=1;html=1;" parent="1" target="441" edge="1">
                    <mxGeometry width="50" height="50" relative="1" as="geometry">
                        <mxPoint x="-890" y="895.75" as="sourcePoint"/>
                        <mxPoint x="-640" y="895.75" as="targetPoint"/>
                    </mxGeometry>
                </mxCell>
                <mxCell id="441" value="" style="triangle;whiteSpace=wrap;html=1;rotation=-180;" parent="1" vertex="1">
                    <mxGeometry x="-900" y="885.75" width="10" height="20" as="geometry"/>
                </mxCell>
                <mxCell id="444" value="" style="endArrow=none;dashed=1;html=1;" parent="1" source="441" edge="1">
                    <mxGeometry width="50" height="50" relative="1" as="geometry">
                        <mxPoint x="-890" y="895.75" as="sourcePoint"/>
                        <mxPoint x="-490" y="896" as="targetPoint"/>
                    </mxGeometry>
                </mxCell>
                <mxCell id="443" value="RDV record" style="text;html=1;align=center;verticalAlign=middle;whiteSpace=wrap;rounded=0;" parent="1" vertex="1">
                    <mxGeometry x="-750" y="866" width="80" height="30" as="geometry"/>
                </mxCell>
                <mxCell id="448" value="" style="endArrow=none;dashed=1;html=1;exitX=0;exitY=0.5;exitDx=0;exitDy=0;" parent="1" target="446" edge="1">
                    <mxGeometry width="50" height="50" relative="1" as="geometry">
                        <mxPoint x="-1138.5" y="905.75" as="sourcePoint"/>
                        <mxPoint x="-901.5" y="905.75" as="targetPoint"/>
                    </mxGeometry>
                </mxCell>
                <mxCell id="446" value="" style="triangle;whiteSpace=wrap;html=1;rotation=-180;" parent="1" vertex="1">
                    <mxGeometry x="-1147.5" y="895.75" width="10" height="20" as="geometry"/>
                </mxCell>
                <mxCell id="450" value="" style="endArrow=none;dashed=1;html=1;exitX=0;exitY=0.5;exitDx=0;exitDy=0;" parent="1" source="446" edge="1">
                    <mxGeometry width="50" height="50" relative="1" as="geometry">
                        <mxPoint x="-1137" y="905.75" as="sourcePoint"/>
                        <mxPoint x="-900" y="905.75" as="targetPoint"/>
                    </mxGeometry>
                </mxCell>
                <mxCell id="449" value="Notify about creation" style="text;html=1;align=center;verticalAlign=middle;whiteSpace=wrap;rounded=0;" parent="1" vertex="1">
                    <mxGeometry x="-1085" y="875.75" width="130" height="30" as="geometry"/>
                </mxCell>
                <mxCell id="451" value="SMS" style="swimlane;fontStyle=0;align=center;verticalAlign=top;childLayout=stackLayout;horizontal=1;startSize=29;horizontalStack=0;resizeParent=1;resizeParentMax=0;resizeLast=0;collapsible=0;marginBottom=0;html=1;whiteSpace=wrap;" vertex="1" parent="1">
                    <mxGeometry x="-114" y="118.5" width="120" height="120" as="geometry"/>
                </mxCell>
                <mxCell id="452" value="&lt;div&gt;&lt;font color=&quot;#000000&quot;&gt;id&lt;/font&gt;&lt;/div&gt;&lt;div&gt;&lt;font color=&quot;#000000&quot;&gt;contenu&lt;/font&gt;&lt;/div&gt;&lt;div&gt;&lt;font color=&quot;#000000&quot;&gt;type (confirmation, rappel, annulation)&lt;/font&gt;&lt;/div&gt;&lt;div&gt;&lt;font color=&quot;#000000&quot;&gt;date_envoi&lt;/font&gt;&lt;/div&gt;" style="text;html=1;strokeColor=none;fillColor=none;align=left;verticalAlign=middle;spacingLeft=4;spacingRight=4;overflow=hidden;rotatable=0;points=[[0,0.5],[1,0.5]];portConstraint=eastwest;whiteSpace=wrap;" vertex="1" parent="451">
                    <mxGeometry y="29" width="120" height="81" as="geometry"/>
                </mxCell>
                <mxCell id="453" value="" style="line;strokeWidth=1;fillColor=none;align=left;verticalAlign=middle;spacingTop=-1;spacingLeft=3;spacingRight=3;rotatable=0;labelPosition=right;points=[];portConstraint=eastwest;" vertex="1" parent="451">
                    <mxGeometry y="110" width="120" height="10" as="geometry"/>
                </mxCell>
                <mxCell id="458" value="" style="endArrow=none;html=1;entryX=1;entryY=0.5;entryDx=0;entryDy=0;" edge="1" parent="1" source="57" target="452">
                    <mxGeometry width="50" height="50" relative="1" as="geometry">
                        <mxPoint x="28.5" y="420" as="sourcePoint"/>
                        <mxPoint x="78.5" y="370" as="targetPoint"/>
                        <Array as="points">
                            <mxPoint x="21" y="200"/>
                        </Array>
                    </mxGeometry>
                </mxCell>
                <mxCell id="460" value="&lt;font style=&quot;font-size: 12px;&quot;&gt;1&lt;/font&gt;" style="text;html=1;align=center;verticalAlign=middle;whiteSpace=wrap;rounded=0;" vertex="1" parent="1">
                    <mxGeometry x="19.75" y="395" width="12.5" height="20" as="geometry"/>
                </mxCell>
                <mxCell id="461" value="&lt;font style=&quot;font-size: 14px;&quot;&gt;*&lt;/font&gt;" style="text;html=1;align=center;verticalAlign=middle;whiteSpace=wrap;rounded=0;" vertex="1" parent="1">
                    <mxGeometry x="9.75" y="185" width="12.5" height="1" as="geometry"/>
                </mxCell>
                <mxCell id="462" value="AuthToken" style="swimlane;fontStyle=0;align=center;verticalAlign=top;childLayout=stackLayout;horizontal=1;startSize=29;horizontalStack=0;resizeParent=1;resizeParentMax=0;resizeLast=0;collapsible=0;marginBottom=0;html=1;whiteSpace=wrap;" vertex="1" parent="1">
                    <mxGeometry x="-14" y="575.75" width="70" height="88" as="geometry"/>
                </mxCell>
                <mxCell id="463" value="id&lt;div&gt;token&lt;/div&gt;&lt;div&gt;dte-exp&lt;/div&gt;" style="text;html=1;strokeColor=none;fillColor=none;align=left;verticalAlign=middle;spacingLeft=4;spacingRight=4;overflow=hidden;rotatable=0;points=[[0,0.5],[1,0.5]];portConstraint=eastwest;whiteSpace=wrap;" vertex="1" parent="462">
                    <mxGeometry y="29" width="70" height="51" as="geometry"/>
                </mxCell>
                <mxCell id="464" value="" style="line;strokeWidth=1;fillColor=none;align=left;verticalAlign=middle;spacingTop=-1;spacingLeft=3;spacingRight=3;rotatable=0;labelPosition=right;points=[];portConstraint=eastwest;" vertex="1" parent="462">
                    <mxGeometry y="80" width="70" height="8" as="geometry"/>
                </mxCell>
                <mxCell id="465" value="" style="endArrow=none;html=1;entryX=0.48;entryY=0.843;entryDx=0;entryDy=0;entryPerimeter=0;" edge="1" parent="1" target="59">
                    <mxGeometry width="50" height="50" relative="1" as="geometry">
                        <mxPoint x="18.5" y="575.75" as="sourcePoint"/>
                        <mxPoint x="68.5" y="525.75" as="targetPoint"/>
                    </mxGeometry>
                </mxCell>
                <mxCell id="467" value="&lt;font style=&quot;font-size: 14px;&quot;&gt;*&lt;/font&gt;" style="text;html=1;align=center;verticalAlign=middle;whiteSpace=wrap;rounded=0;" vertex="1" parent="1">
                    <mxGeometry x="23.5" y="570" width="12.5" height="1.5" as="geometry"/>
                </mxCell>
                <mxCell id="468" value="&lt;font style=&quot;font-size: 12px;&quot;&gt;1&lt;/font&gt;" style="text;html=1;align=center;verticalAlign=middle;whiteSpace=wrap;rounded=0;" vertex="1" parent="1">
                    <mxGeometry x="22.25" y="535.5" width="12.5" height="13" as="geometry"/>
                </mxCell>
                <mxCell id="471" value="Reclamation" style="swimlane;fontStyle=0;align=center;verticalAlign=top;childLayout=stackLayout;horizontal=1;startSize=29;horizontalStack=0;resizeParent=1;resizeParentMax=0;resizeLast=0;collapsible=0;marginBottom=0;html=1;whiteSpace=wrap;" vertex="1" parent="1">
                    <mxGeometry x="-57.75" y="774.5" width="90" height="88" as="geometry"/>
                </mxCell>
                <mxCell id="472" value="description&lt;div&gt;status&lt;/div&gt;&lt;div&gt;date&lt;/div&gt;" style="text;html=1;strokeColor=none;fillColor=none;align=left;verticalAlign=middle;spacingLeft=4;spacingRight=4;overflow=hidden;rotatable=0;points=[[0,0.5],[1,0.5]];portConstraint=eastwest;whiteSpace=wrap;" vertex="1" parent="471">
                    <mxGeometry y="29" width="90" height="51" as="geometry"/>
                </mxCell>
                <mxCell id="473" value="" style="line;strokeWidth=1;fillColor=none;align=left;verticalAlign=middle;spacingTop=-1;spacingLeft=3;spacingRight=3;rotatable=0;labelPosition=right;points=[];portConstraint=eastwest;" vertex="1" parent="471">
                    <mxGeometry y="80" width="90" height="8" as="geometry"/>
                </mxCell>
                <mxCell id="474" value="" style="endArrow=none;html=1;entryX=0;entryY=0.25;entryDx=0;entryDy=0;exitX=0.442;exitY=0.34;exitDx=0;exitDy=0;exitPerimeter=0;" edge="1" parent="1" source="103" target="2">
                    <mxGeometry width="50" height="50" relative="1" as="geometry">
                        <mxPoint x="-200" y="811.006496263587" as="sourcePoint"/>
                        <mxPoint x="-134" y="317" as="targetPoint"/>
                        <Array as="points">
                            <mxPoint x="176" y="720"/>
                            <mxPoint x="-200" y="720"/>
                            <mxPoint x="-200" y="313"/>
                        </Array>
                    </mxGeometry>
                </mxCell>
                <mxCell id="476" value="" style="endArrow=none;dashed=1;html=1;exitX=0.5;exitY=0;exitDx=0;exitDy=0;" edge="1" parent="1" source="471">
                    <mxGeometry width="50" height="50" relative="1" as="geometry">
                        <mxPoint x="-64" y="768.5" as="sourcePoint"/>
                        <mxPoint x="-14" y="720" as="targetPoint"/>
                    </mxGeometry>
                </mxCell>
                <mxCell id="477" value="&lt;font style=&quot;font-size: 14px;&quot;&gt;*&lt;/font&gt;" style="text;html=1;align=center;verticalAlign=middle;whiteSpace=wrap;rounded=0;" vertex="1" parent="1">
                    <mxGeometry x="153.5" y="610.5" width="12.5" height="20" as="geometry"/>
                </mxCell>
                <mxCell id="478" value="&lt;font style=&quot;font-size: 14px;&quot;&gt;*&lt;/font&gt;" style="text;html=1;align=center;verticalAlign=middle;whiteSpace=wrap;rounded=0;" vertex="1" parent="1">
                    <mxGeometry x="-95.25" y="297.5" width="12.5" height="1" as="geometry"/>
                </mxCell>
                <mxCell id="479" value="Paiement" style="swimlane;fontStyle=0;align=center;verticalAlign=top;childLayout=stackLayout;horizontal=1;startSize=29;horizontalStack=0;resizeParent=1;resizeParentMax=0;resizeLast=0;collapsible=0;marginBottom=0;html=1;whiteSpace=wrap;" vertex="1" parent="1">
                    <mxGeometry x="526" y="454" width="100" height="120" as="geometry"/>
                </mxCell>
                <mxCell id="480" value="&lt;div&gt;id&lt;/div&gt;&lt;div&gt;date&lt;/div&gt;&lt;div&gt;montant&lt;/div&gt;&lt;div&gt;status {effectué,&lt;/div&gt;&lt;div&gt;annulé}&lt;/div&gt;" style="text;html=1;strokeColor=none;fillColor=none;align=left;verticalAlign=middle;spacingLeft=4;spacingRight=4;overflow=hidden;rotatable=0;points=[[0,0.5],[1,0.5]];portConstraint=eastwest;whiteSpace=wrap;" vertex="1" parent="479">
                    <mxGeometry y="29" width="100" height="81" as="geometry"/>
                </mxCell>
                <mxCell id="481" value="" style="line;strokeWidth=1;fillColor=none;align=left;verticalAlign=middle;spacingTop=-1;spacingLeft=3;spacingRight=3;rotatable=0;labelPosition=right;points=[];portConstraint=eastwest;" vertex="1" parent="479">
                    <mxGeometry y="110" width="100" height="10" as="geometry"/>
                </mxCell>
                <mxCell id="482" value="Facture" style="swimlane;fontStyle=0;align=center;verticalAlign=top;childLayout=stackLayout;horizontal=1;startSize=29;horizontalStack=0;resizeParent=1;resizeParentMax=0;resizeLast=0;collapsible=0;marginBottom=0;html=1;whiteSpace=wrap;" vertex="1" parent="1">
                    <mxGeometry x="696" y="454" width="70" height="100" as="geometry"/>
                </mxCell>
                <mxCell id="483" value="&lt;div&gt;id&lt;/div&gt;&lt;div&gt;date&lt;/div&gt;&lt;div&gt;montant&lt;/div&gt;&lt;div&gt;TVA&lt;/div&gt;" style="text;html=1;strokeColor=none;fillColor=none;align=left;verticalAlign=middle;spacingLeft=4;spacingRight=4;overflow=hidden;rotatable=0;points=[[0,0.5],[1,0.5]];portConstraint=eastwest;whiteSpace=wrap;" vertex="1" parent="482">
                    <mxGeometry y="29" width="70" height="61" as="geometry"/>
                </mxCell>
                <mxCell id="484" value="" style="line;strokeWidth=1;fillColor=none;align=left;verticalAlign=middle;spacingTop=-1;spacingLeft=3;spacingRight=3;rotatable=0;labelPosition=right;points=[];portConstraint=eastwest;" vertex="1" parent="482">
                    <mxGeometry y="90" width="70" height="10" as="geometry"/>
                </mxCell>
                <mxCell id="493" style="edgeStyle=none;html=1;entryX=0.25;entryY=1;entryDx=0;entryDy=0;" edge="1" parent="1" source="485" target="479">
                    <mxGeometry relative="1" as="geometry"/>
                </mxCell>
                <mxCell id="485" value="Cash" style="swimlane;fontStyle=0;align=center;verticalAlign=top;childLayout=stackLayout;horizontal=1;startSize=29;horizontalStack=0;resizeParent=1;resizeParentMax=0;resizeLast=0;collapsible=0;marginBottom=0;html=1;whiteSpace=wrap;" vertex="1" parent="1">
                    <mxGeometry x="466" y="607.5" width="60" height="34" as="geometry"/>
                </mxCell>
                <mxCell id="486" value="" style="line;strokeWidth=1;fillColor=none;align=left;verticalAlign=middle;spacingTop=-1;spacingLeft=3;spacingRight=3;rotatable=0;labelPosition=right;points=[];portConstraint=eastwest;" vertex="1" parent="485">
                    <mxGeometry y="29" width="60" height="5" as="geometry"/>
                </mxCell>
                <mxCell id="495" style="edgeStyle=none;html=1;entryX=0.75;entryY=1;entryDx=0;entryDy=0;" edge="1" parent="1" source="487" target="479">
                    <mxGeometry relative="1" as="geometry"/>
                </mxCell>
                <mxCell id="487" value="chéque" style="swimlane;fontStyle=0;align=center;verticalAlign=top;childLayout=stackLayout;horizontal=1;startSize=29;horizontalStack=0;resizeParent=1;resizeParentMax=0;resizeLast=0;collapsible=0;marginBottom=0;html=1;whiteSpace=wrap;" vertex="1" parent="1">
                    <mxGeometry x="616" y="607.5" width="70" height="100" as="geometry"/>
                </mxCell>
                <mxCell id="488" value="nom&amp;nbsp;&lt;div&gt;bankID&lt;/div&gt;" style="text;html=1;strokeColor=none;fillColor=none;align=left;verticalAlign=middle;spacingLeft=4;spacingRight=4;overflow=hidden;rotatable=0;points=[[0,0.5],[1,0.5]];portConstraint=eastwest;whiteSpace=wrap;" vertex="1" parent="487">
                    <mxGeometry y="29" width="70" height="61" as="geometry"/>
                </mxCell>
                <mxCell id="489" value="" style="line;strokeWidth=1;fillColor=none;align=left;verticalAlign=middle;spacingTop=-1;spacingLeft=3;spacingRight=3;rotatable=0;labelPosition=right;points=[];portConstraint=eastwest;" vertex="1" parent="487">
                    <mxGeometry y="90" width="70" height="10" as="geometry"/>
                </mxCell>
                <mxCell id="494" value="" style="edgeStyle=none;html=1;" edge="1" parent="1" source="490" target="481">
                    <mxGeometry relative="1" as="geometry"/>
                </mxCell>
                <mxCell id="490" value="Carte" style="swimlane;fontStyle=0;align=center;verticalAlign=top;childLayout=stackLayout;horizontal=1;startSize=29;horizontalStack=0;resizeParent=1;resizeParentMax=0;resizeLast=0;collapsible=0;marginBottom=0;html=1;whiteSpace=wrap;" vertex="1" parent="1">
                    <mxGeometry x="536" y="607.5" width="70" height="100" as="geometry"/>
                </mxCell>
                <mxCell id="491" value="&lt;div&gt;nom&lt;/div&gt;&lt;div&gt;dte_exp&lt;/div&gt;&lt;div&gt;type&lt;/div&gt;" style="text;html=1;strokeColor=none;fillColor=none;align=left;verticalAlign=middle;spacingLeft=4;spacingRight=4;overflow=hidden;rotatable=0;points=[[0,0.5],[1,0.5]];portConstraint=eastwest;whiteSpace=wrap;" vertex="1" parent="490">
                    <mxGeometry y="29" width="70" height="61" as="geometry"/>
                </mxCell>
                <mxCell id="492" value="" style="line;strokeWidth=1;fillColor=none;align=left;verticalAlign=middle;spacingTop=-1;spacingLeft=3;spacingRight=3;rotatable=0;labelPosition=right;points=[];portConstraint=eastwest;" vertex="1" parent="490">
                    <mxGeometry y="90" width="70" height="10" as="geometry"/>
                </mxCell>
                <mxCell id="496" value="" style="rhombus;whiteSpace=wrap;html=1;fillColor=#1A1A1A;" vertex="1" parent="1">
                    <mxGeometry x="254.75" y="509" width="10" height="10" as="geometry"/>
                </mxCell>
                <mxCell id="498" value="" style="endArrow=none;html=1;entryX=0.007;entryY=0.214;entryDx=0;entryDy=0;entryPerimeter=0;" edge="1" parent="1" target="479">
                    <mxGeometry width="50" height="50" relative="1" as="geometry">
                        <mxPoint x="264.75" y="514.25" as="sourcePoint"/>
                        <mxPoint x="416" y="480" as="targetPoint"/>
                        <Array as="points">
                            <mxPoint x="296" y="480"/>
                        </Array>
                    </mxGeometry>
                </mxCell>
                <mxCell id="502" value="" style="rhombus;whiteSpace=wrap;html=1;fillColor=#1A1A1A;" vertex="1" parent="1">
                    <mxGeometry x="626" y="495.5" width="10" height="10" as="geometry"/>
                </mxCell>
                <mxCell id="504" value="" style="endArrow=none;html=1;entryX=-0.009;entryY=0.288;entryDx=0;entryDy=0;entryPerimeter=0;" edge="1" parent="1" target="483">
                    <mxGeometry width="50" height="50" relative="1" as="geometry">
                        <mxPoint x="636" y="501" as="sourcePoint"/>
                        <mxPoint x="686" y="451" as="targetPoint"/>
                    </mxGeometry>
                </mxCell>
                <mxCell id="505" value="&lt;font style=&quot;font-size: 14px;&quot;&gt;*&lt;/font&gt;" style="text;html=1;align=center;verticalAlign=middle;whiteSpace=wrap;rounded=0;" vertex="1" parent="1">
                    <mxGeometry x="686" y="487" width="2.5" height="1.5" as="geometry"/>
                </mxCell>
                <mxCell id="506" value="&lt;font style=&quot;font-size: 12px;&quot;&gt;1..*&lt;/font&gt;" style="text;html=1;align=center;verticalAlign=middle;whiteSpace=wrap;rounded=0;" vertex="1" parent="1">
                    <mxGeometry x="507.25" y="460" width="8.75" height="11.5" as="geometry"/>
                </mxCell>
                <mxCell id="507" value="Document" style="swimlane;fontStyle=0;align=center;verticalAlign=top;childLayout=stackLayout;horizontal=1;startSize=29;horizontalStack=0;resizeParent=1;resizeParentMax=0;resizeLast=0;collapsible=0;marginBottom=0;html=1;whiteSpace=wrap;" vertex="1" parent="1">
                    <mxGeometry x="506" y="300" width="100" height="120" as="geometry"/>
                </mxCell>
                <mxCell id="508" value="&lt;div&gt;id&lt;/div&gt;&lt;div&gt;nom&lt;/div&gt;&lt;div&gt;date_upload&lt;/div&gt;&lt;div&gt;&lt;span style=&quot;background-color: transparent;&quot;&gt;type {carteGrise,&lt;/span&gt;&lt;/div&gt;&lt;div&gt;&lt;span style=&quot;color: rgb(63, 63, 63); background-color: transparent;&quot;&gt;assuranceInter&lt;/span&gt;&lt;span style=&quot;background-color: transparent;&quot;&gt;}&lt;/span&gt;&lt;/div&gt;" style="text;html=1;strokeColor=none;fillColor=none;align=left;verticalAlign=middle;spacingLeft=4;spacingRight=4;overflow=hidden;rotatable=0;points=[[0,0.5],[1,0.5]];portConstraint=eastwest;whiteSpace=wrap;" vertex="1" parent="507">
                    <mxGeometry y="29" width="100" height="81" as="geometry"/>
                </mxCell>
                <mxCell id="509" value="" style="line;strokeWidth=1;fillColor=none;align=left;verticalAlign=middle;spacingTop=-1;spacingLeft=3;spacingRight=3;rotatable=0;labelPosition=right;points=[];portConstraint=eastwest;" vertex="1" parent="507">
                    <mxGeometry y="110" width="100" height="10" as="geometry"/>
                </mxCell>
                <mxCell id="510" value="" style="endArrow=none;html=1;entryX=0.299;entryY=0;entryDx=0;entryDy=0;exitX=0.773;exitY=0.005;exitDx=0;exitDy=0;exitPerimeter=0;entryPerimeter=0;" edge="1" parent="1" source="77" target="507">
                    <mxGeometry width="50" height="50" relative="1" as="geometry">
                        <mxPoint x="253.5" y="324.25" as="sourcePoint"/>
                        <mxPoint x="515.75" y="290" as="targetPoint"/>
                        <Array as="points">
                            <mxPoint x="256" y="280"/>
                            <mxPoint x="536" y="280"/>
                            <mxPoint x="536" y="290"/>
                        </Array>
                    </mxGeometry>
                </mxCell>
                <mxCell id="511" value="&lt;font style=&quot;font-size: 12px;&quot;&gt;1&lt;/font&gt;" style="text;html=1;align=center;verticalAlign=middle;whiteSpace=wrap;rounded=0;" vertex="1" parent="1">
                    <mxGeometry x="248.5" y="310" width="2.5" height="14.5" as="geometry"/>
                </mxCell>
                <mxCell id="512" value="&lt;font style=&quot;font-size: 14px;&quot;&gt;*&lt;/font&gt;" style="text;html=1;align=center;verticalAlign=middle;whiteSpace=wrap;rounded=0;" vertex="1" parent="1">
                    <mxGeometry x="542.25" y="290" width="2.5" height="1.5" as="geometry"/>
                </mxCell>
                <mxCell id="513" value="User" style="shape=umlActor;verticalLabelPosition=bottom;verticalAlign=top;html=1;outlineConnect=0;" vertex="1" parent="1">
                    <mxGeometry x="-1930" y="-2130.0000000000005" width="30" height="60" as="geometry"/>
                </mxCell>
                <mxCell id="514" value="" style="ellipse;whiteSpace=wrap;html=1;aspect=fixed;" vertex="1" parent="1">
                    <mxGeometry x="-1707.5" y="-2095.0000000000005" width="30" height="30" as="geometry"/>
                </mxCell>
                <mxCell id="515" value="" style="endArrow=none;html=1;" edge="1" parent="1">
                    <mxGeometry width="50" height="50" relative="1" as="geometry">
                        <mxPoint x="-1717.5" y="-2080.0000000000005" as="sourcePoint"/>
                        <mxPoint x="-1707.5" y="-2080.0000000000005" as="targetPoint"/>
                    </mxGeometry>
                </mxCell>
                <mxCell id="516" value="" style="endArrow=none;html=1;" edge="1" parent="1">
                    <mxGeometry width="50" height="50" relative="1" as="geometry">
                        <mxPoint x="-1717.5" y="-2075.0000000000005" as="sourcePoint"/>
                        <mxPoint x="-1717.5" y="-2085.0000000000005" as="targetPoint"/>
                    </mxGeometry>
                </mxCell>
                <mxCell id="517" value="" style="ellipse;whiteSpace=wrap;html=1;aspect=fixed;" vertex="1" parent="1">
                    <mxGeometry x="-1450" y="-2095.0000000000005" width="30" height="30" as="geometry"/>
                </mxCell>
                <mxCell id="518" value="" style="endArrow=none;html=1;exitX=0.5;exitY=0;exitDx=0;exitDy=0;" edge="1" parent="1" source="517">
                    <mxGeometry width="50" height="50" relative="1" as="geometry">
                        <mxPoint x="-1407.5" y="-2075.0000000000005" as="sourcePoint"/>
                        <mxPoint x="-1427.5" y="-2090.0000000000005" as="targetPoint"/>
                    </mxGeometry>
                </mxCell>
                <mxCell id="519" value="" style="endArrow=none;html=1;" edge="1" parent="1">
                    <mxGeometry width="50" height="50" relative="1" as="geometry">
                        <mxPoint x="-1435" y="-2095.1800000000003" as="sourcePoint"/>
                        <mxPoint x="-1427.5" y="-2100.0000000000005" as="targetPoint"/>
                    </mxGeometry>
                </mxCell>
                <mxCell id="520" value="" style="ellipse;whiteSpace=wrap;html=1;aspect=fixed;" vertex="1" parent="1">
                    <mxGeometry x="-1197.5" y="-2095.0000000000005" width="30" height="30" as="geometry"/>
                </mxCell>
                <mxCell id="521" value="" style="endArrow=none;html=1;" edge="1" parent="1">
                    <mxGeometry width="50" height="50" relative="1" as="geometry">
                        <mxPoint x="-1202.5" y="-2065.6700000000005" as="sourcePoint"/>
                        <mxPoint x="-1162.5" y="-2065.6700000000005" as="targetPoint"/>
                    </mxGeometry>
                </mxCell>
                <mxCell id="526" value="&lt;u&gt;UI:Client&lt;/u&gt;" style="text;html=1;align=center;verticalAlign=middle;whiteSpace=wrap;rounded=0;" vertex="1" parent="1">
                    <mxGeometry x="-1722.5" y="-2065.0000000000005" width="60" height="30" as="geometry"/>
                </mxCell>
                <mxCell id="527" value="&lt;u&gt;:DB&lt;/u&gt;" style="text;html=1;align=center;verticalAlign=middle;whiteSpace=wrap;rounded=0;" vertex="1" parent="1">
                    <mxGeometry x="-1212.5" y="-2065.0000000000005" width="60" height="30" as="geometry"/>
                </mxCell>
                <mxCell id="528" value="&lt;u&gt;:Server&lt;/u&gt;" style="text;html=1;align=center;verticalAlign=middle;whiteSpace=wrap;rounded=0;" vertex="1" parent="1">
                    <mxGeometry x="-1467.5" y="-2065.0000000000005" width="60" height="30" as="geometry"/>
                </mxCell>
                <mxCell id="529" value="" style="endArrow=classic;html=1;" edge="1" parent="1">
                    <mxGeometry width="50" height="50" relative="1" as="geometry">
                        <mxPoint x="-1917.5" y="-2000" as="sourcePoint"/>
                        <mxPoint x="-1687.5" y="-2000" as="targetPoint"/>
                    </mxGeometry>
                </mxCell>
                <mxCell id="530" value="" style="endArrow=classic;html=1;" edge="1" parent="1">
                    <mxGeometry width="50" height="50" relative="1" as="geometry">
                        <mxPoint x="-1917.5" y="-1950" as="sourcePoint"/>
                        <mxPoint x="-1687.5" y="-1950" as="targetPoint"/>
                    </mxGeometry>
                </mxCell>
                <mxCell id="531" value="" style="endArrow=classic;html=1;" edge="1" parent="1">
                    <mxGeometry width="50" height="50" relative="1" as="geometry">
                        <mxPoint x="-1915" y="-1846.5" as="sourcePoint"/>
                        <mxPoint x="-1685" y="-1846.5" as="targetPoint"/>
                    </mxGeometry>
                </mxCell>
                <mxCell id="532" value="" style="endArrow=classic;html=1;" edge="1" parent="1">
                    <mxGeometry width="50" height="50" relative="1" as="geometry">
                        <mxPoint x="-1687.5" y="-1840" as="sourcePoint"/>
                        <mxPoint x="-1437.5" y="-1840" as="targetPoint"/>
                    </mxGeometry>
                </mxCell>
                <mxCell id="533" value="" style="endArrow=classic;html=1;" edge="1" parent="1">
                    <mxGeometry width="50" height="50" relative="1" as="geometry">
                        <mxPoint x="-1440" y="-1831" as="sourcePoint"/>
                        <mxPoint x="-1440" y="-1791" as="targetPoint"/>
                        <Array as="points">
                            <mxPoint x="-1390" y="-1831"/>
                            <mxPoint x="-1390" y="-1791"/>
                        </Array>
                    </mxGeometry>
                </mxCell>
                <mxCell id="534" value="" style="endArrow=classic;html=1;" edge="1" parent="1">
                    <mxGeometry width="50" height="50" relative="1" as="geometry">
                        <mxPoint x="-1438" y="-1780" as="sourcePoint"/>
                        <mxPoint x="-1177.5" y="-1780" as="targetPoint"/>
                    </mxGeometry>
                </mxCell>
                <mxCell id="535" value="" style="endArrow=none;dashed=1;html=1;exitX=0;exitY=0.5;exitDx=0;exitDy=0;" edge="1" parent="1" source="567">
                    <mxGeometry width="50" height="50" relative="1" as="geometry">
                        <mxPoint x="-1430" y="-1750" as="sourcePoint"/>
                        <mxPoint x="-1180" y="-1748" as="targetPoint"/>
                    </mxGeometry>
                </mxCell>
                <mxCell id="536" value="" style="endArrow=none;dashed=1;html=1;" edge="1" parent="1" source="570">
                    <mxGeometry width="50" height="50" relative="1" as="geometry">
                        <mxPoint x="-1680" y="-1740" as="sourcePoint"/>
                        <mxPoint x="-1440" y="-1740" as="targetPoint"/>
                    </mxGeometry>
                </mxCell>
                <mxCell id="537" value="" style="endArrow=classic;html=1;" edge="1" parent="1">
                    <mxGeometry width="50" height="50" relative="1" as="geometry">
                        <mxPoint x="-1920" y="-1728" as="sourcePoint"/>
                        <mxPoint x="-1690" y="-1728" as="targetPoint"/>
                    </mxGeometry>
                </mxCell>
                <mxCell id="538" value="" style="endArrow=classic;html=1;" edge="1" parent="1">
                    <mxGeometry width="50" height="50" relative="1" as="geometry">
                        <mxPoint x="-1690" y="-1710" as="sourcePoint"/>
                        <mxPoint x="-1690" y="-1670" as="targetPoint"/>
                        <Array as="points">
                            <mxPoint x="-1640" y="-1710"/>
                            <mxPoint x="-1640" y="-1670"/>
                        </Array>
                    </mxGeometry>
                </mxCell>
                <mxCell id="539" value="" style="endArrow=classic;html=1;" edge="1" parent="1">
                    <mxGeometry width="50" height="50" relative="1" as="geometry">
                        <mxPoint x="-1920" y="-1650.71" as="sourcePoint"/>
                        <mxPoint x="-1690" y="-1650.71" as="targetPoint"/>
                    </mxGeometry>
                </mxCell>
                <mxCell id="540" value="" style="endArrow=classic;html=1;" edge="1" parent="1">
                    <mxGeometry width="50" height="50" relative="1" as="geometry">
                        <mxPoint x="-1690" y="-1630" as="sourcePoint"/>
                        <mxPoint x="-1440" y="-1630" as="targetPoint"/>
                    </mxGeometry>
                </mxCell>
                <mxCell id="541" value="" style="endArrow=classic;html=1;" edge="1" parent="1">
                    <mxGeometry width="50" height="50" relative="1" as="geometry">
                        <mxPoint x="-1440" y="-1571.5" as="sourcePoint"/>
                        <mxPoint x="-1180" y="-1571.5" as="targetPoint"/>
                    </mxGeometry>
                </mxCell>
                <mxCell id="542" value="" style="endArrow=none;dashed=1;html=1;" edge="1" parent="1">
                    <mxGeometry width="50" height="50" relative="1" as="geometry">
                        <mxPoint x="-1430" y="-1550" as="sourcePoint"/>
                        <mxPoint x="-1180" y="-1550" as="targetPoint"/>
                    </mxGeometry>
                </mxCell>
                <mxCell id="543" value="" style="endArrow=none;dashed=1;html=1;" edge="1" parent="1" source="583">
                    <mxGeometry width="50" height="50" relative="1" as="geometry">
                        <mxPoint x="-1670" y="-1541" as="sourcePoint"/>
                        <mxPoint x="-1437.5" y="-1541.5" as="targetPoint"/>
                    </mxGeometry>
                </mxCell>
                <mxCell id="544" value="" style="endArrow=classic;html=1;" edge="1" parent="1">
                    <mxGeometry width="50" height="50" relative="1" as="geometry">
                        <mxPoint x="-1917.5" y="-1480" as="sourcePoint"/>
                        <mxPoint x="-1687.5" y="-1480" as="targetPoint"/>
                    </mxGeometry>
                </mxCell>
                <mxCell id="545" value="" style="endArrow=classic;html=1;" edge="1" parent="1">
                    <mxGeometry width="50" height="50" relative="1" as="geometry">
                        <mxPoint x="-1687.5" y="-1380" as="sourcePoint"/>
                        <mxPoint x="-1437.5" y="-1380" as="targetPoint"/>
                    </mxGeometry>
                </mxCell>
                <mxCell id="546" value="" style="endArrow=classic;html=1;" edge="1" parent="1">
                    <mxGeometry width="50" height="50" relative="1" as="geometry">
                        <mxPoint x="-1917.5" y="-1390" as="sourcePoint"/>
                        <mxPoint x="-1687.5" y="-1390" as="targetPoint"/>
                    </mxGeometry>
                </mxCell>
                <mxCell id="547" value="" style="endArrow=classic;html=1;" edge="1" parent="1">
                    <mxGeometry width="50" height="50" relative="1" as="geometry">
                        <mxPoint x="-1690" y="-1470" as="sourcePoint"/>
                        <mxPoint x="-1440" y="-1470" as="targetPoint"/>
                    </mxGeometry>
                </mxCell>
                <mxCell id="548" value="" style="endArrow=classic;html=1;" edge="1" parent="1">
                    <mxGeometry width="50" height="50" relative="1" as="geometry">
                        <mxPoint x="-1440" y="-1310" as="sourcePoint"/>
                        <mxPoint x="-1180" y="-1310" as="targetPoint"/>
                    </mxGeometry>
                </mxCell>
                <mxCell id="549" value="" style="endArrow=none;dashed=1;html=1;" edge="1" parent="1" source="593">
                    <mxGeometry width="50" height="50" relative="1" as="geometry">
                        <mxPoint x="-1425" y="-1290.5" as="sourcePoint"/>
                        <mxPoint x="-1175" y="-1290.5" as="targetPoint"/>
                    </mxGeometry>
                </mxCell>
                <mxCell id="550" value="" style="endArrow=none;dashed=1;html=1;exitX=0;exitY=0.5;exitDx=0;exitDy=0;" edge="1" parent="1" source="595">
                    <mxGeometry width="50" height="50" relative="1" as="geometry">
                        <mxPoint x="-1670" y="-1280" as="sourcePoint"/>
                        <mxPoint x="-1440" y="-1280" as="targetPoint"/>
                    </mxGeometry>
                </mxCell>
                <mxCell id="551" value="ALT" style="shape=umlFrame;whiteSpace=wrap;html=1;pointerEvents=0;recursiveResize=0;container=1;collapsible=0;width=170;" vertex="1" parent="1">
                    <mxGeometry x="-2100" y="-1515.75" width="970" height="245.75" as="geometry"/>
                </mxCell>
                <mxCell id="552" value="[existing car]" style="text;html=1;" vertex="1" parent="551">
                    <mxGeometry width="100" height="20" relative="1" as="geometry">
                        <mxPoint x="20" y="40" as="offset"/>
                    </mxGeometry>
                </mxCell>
                <mxCell id="553" value="[new car]" style="line;strokeWidth=1;dashed=1;labelPosition=center;verticalLabelPosition=bottom;align=left;verticalAlign=top;spacingLeft=20;spacingTop=15;html=1;whiteSpace=wrap;" vertex="1" parent="551">
                    <mxGeometry y="85.75" width="970" height="10" as="geometry"/>
                </mxCell>
                <mxCell id="554" value="SignUp (Nominal)" style="text;html=1;align=center;verticalAlign=middle;whiteSpace=wrap;rounded=0;" vertex="1" parent="1">
                    <mxGeometry x="-1850" y="-2024.5" width="100" height="30" as="geometry"/>
                </mxCell>
                <mxCell id="555" value="SignIn (Nominal)" style="text;html=1;align=center;verticalAlign=middle;whiteSpace=wrap;rounded=0;" vertex="1" parent="1">
                    <mxGeometry x="-1850" y="-1974.5" width="100" height="30" as="geometry"/>
                </mxCell>
                <mxCell id="556" value="Ref" style="shape=umlFrame;whiteSpace=wrap;html=1;pointerEvents=0;recursiveResize=0;container=1;collapsible=0;width=50;" vertex="1" parent="1">
                    <mxGeometry x="-1980" y="-2024.5" width="330" height="45" as="geometry"/>
                </mxCell>
                <mxCell id="557" value="ALT" style="shape=umlFrame;whiteSpace=wrap;html=1;pointerEvents=0;recursiveResize=0;container=1;collapsible=0;width=170;" vertex="1" parent="1">
                    <mxGeometry x="-2170" y="-2035.0000000000002" width="570" height="125" as="geometry"/>
                </mxCell>
                <mxCell id="558" value="[Guest]" style="text;html=1;" vertex="1" parent="557">
                    <mxGeometry width="100" height="20" relative="1" as="geometry">
                        <mxPoint x="10" y="25" as="offset"/>
                    </mxGeometry>
                </mxCell>
                <mxCell id="559" value="" style="line;strokeWidth=1;dashed=1;labelPosition=center;verticalLabelPosition=bottom;align=left;verticalAlign=top;spacingLeft=20;spacingTop=15;html=1;whiteSpace=wrap;" vertex="1" parent="557">
                    <mxGeometry y="57.5" width="570" height="10" as="geometry"/>
                </mxCell>
                <mxCell id="560" value="Ref" style="shape=umlFrame;whiteSpace=wrap;html=1;pointerEvents=0;recursiveResize=0;container=1;collapsible=0;width=50;" vertex="1" parent="557">
                    <mxGeometry x="190" y="67.5" width="330" height="45" as="geometry"/>
                </mxCell>
                <mxCell id="561" value="[Client]" style="text;html=1;" vertex="1" parent="557">
                    <mxGeometry x="10" y="67.5" width="100" height="20" as="geometry"/>
                </mxCell>
                <mxCell id="562" value="Fill car form (I/L)" style="text;html=1;align=center;verticalAlign=middle;whiteSpace=wrap;rounded=0;" vertex="1" parent="1">
                    <mxGeometry x="-1850" y="-1871.5" width="100" height="20" as="geometry"/>
                </mxCell>
                <mxCell id="563" value="Add car" style="text;html=1;align=center;verticalAlign=middle;whiteSpace=wrap;rounded=0;" vertex="1" parent="1">
                    <mxGeometry x="-1620" y="-1866.5" width="100" height="30" as="geometry"/>
                </mxCell>
                <mxCell id="564" value="Verify car infos" style="text;html=1;align=center;verticalAlign=middle;whiteSpace=wrap;rounded=0;" vertex="1" parent="1">
                    <mxGeometry x="-1400" y="-1826" width="80" height="30" as="geometry"/>
                </mxCell>
                <mxCell id="565" value="Save new car" style="text;html=1;align=center;verticalAlign=middle;whiteSpace=wrap;rounded=0;" vertex="1" parent="1">
                    <mxGeometry x="-1340" y="-1806" width="80" height="30" as="geometry"/>
                </mxCell>
                <mxCell id="566" value="" style="endArrow=none;dashed=1;html=1;" edge="1" parent="1" target="567">
                    <mxGeometry width="50" height="50" relative="1" as="geometry">
                        <mxPoint x="-1430" y="-1750" as="sourcePoint"/>
                        <mxPoint x="-1180" y="-1750" as="targetPoint"/>
                    </mxGeometry>
                </mxCell>
                <mxCell id="567" value="" style="triangle;whiteSpace=wrap;html=1;rotation=-180;" vertex="1" parent="1">
                    <mxGeometry x="-1440" y="-1758" width="10" height="20" as="geometry"/>
                </mxCell>
                <mxCell id="568" value="Car record" style="text;html=1;align=center;verticalAlign=middle;whiteSpace=wrap;rounded=0;" vertex="1" parent="1">
                    <mxGeometry x="-1340" y="-1776" width="80" height="30" as="geometry"/>
                </mxCell>
                <mxCell id="569" value="" style="endArrow=none;dashed=1;html=1;" edge="1" parent="1" target="570">
                    <mxGeometry width="50" height="50" relative="1" as="geometry">
                        <mxPoint x="-1680" y="-1740" as="sourcePoint"/>
                        <mxPoint x="-1440" y="-1740" as="targetPoint"/>
                    </mxGeometry>
                </mxCell>
                <mxCell id="570" value="" style="triangle;whiteSpace=wrap;html=1;rotation=-180;" vertex="1" parent="1">
                    <mxGeometry x="-1687.5" y="-1748" width="10" height="20" as="geometry"/>
                </mxCell>
                <mxCell id="571" value="Car data&amp;nbsp;" style="text;html=1;align=center;verticalAlign=middle;whiteSpace=wrap;rounded=0;" vertex="1" parent="1">
                    <mxGeometry x="-1600" y="-1763" width="80" height="30" as="geometry"/>
                </mxCell>
                <mxCell id="572" value="Initilize booking appointment" style="text;html=1;align=center;verticalAlign=middle;whiteSpace=wrap;rounded=0;" vertex="1" parent="1">
                    <mxGeometry x="-1900" y="-1753" width="180" height="30" as="geometry"/>
                </mxCell>
                <mxCell id="573" value="Show rdv details" style="text;html=1;align=center;verticalAlign=middle;whiteSpace=wrap;rounded=0;" vertex="1" parent="1">
                    <mxGeometry x="-1650" y="-1700" width="80" height="30" as="geometry"/>
                </mxCell>
                <mxCell id="574" value="Confirm and launch creation" style="text;html=1;align=center;verticalAlign=middle;whiteSpace=wrap;rounded=0;" vertex="1" parent="1">
                    <mxGeometry x="-1900" y="-1678" width="180" height="30" as="geometry"/>
                </mxCell>
                <mxCell id="575" value="Add rdv" style="text;html=1;align=center;verticalAlign=middle;whiteSpace=wrap;rounded=0;" vertex="1" parent="1">
                    <mxGeometry x="-1610" y="-1660" width="100" height="30" as="geometry"/>
                </mxCell>
                <mxCell id="576" value="" style="endArrow=classic;html=1;" edge="1" parent="1">
                    <mxGeometry width="50" height="50" relative="1" as="geometry">
                        <mxPoint x="-1440" y="-1621.5" as="sourcePoint"/>
                        <mxPoint x="-1440" y="-1581.5" as="targetPoint"/>
                        <Array as="points">
                            <mxPoint x="-1390" y="-1621.5"/>
                            <mxPoint x="-1390" y="-1581.5"/>
                        </Array>
                    </mxGeometry>
                </mxCell>
                <mxCell id="577" value="Verify rdv infos" style="text;html=1;align=center;verticalAlign=middle;whiteSpace=wrap;rounded=0;" vertex="1" parent="1">
                    <mxGeometry x="-1407.5" y="-1631.5" width="80" height="30" as="geometry"/>
                </mxCell>
                <mxCell id="578" value="Save new rdv and update car&#39;s rdvs" style="text;html=1;align=center;verticalAlign=middle;whiteSpace=wrap;rounded=0;" vertex="1" parent="1">
                    <mxGeometry x="-1350" y="-1600.75" width="100" height="30" as="geometry"/>
                </mxCell>
                <mxCell id="579" value="" style="endArrow=none;dashed=1;html=1;" edge="1" parent="1" target="580">
                    <mxGeometry width="50" height="50" relative="1" as="geometry">
                        <mxPoint x="-1430" y="-1550" as="sourcePoint"/>
                        <mxPoint x="-1180" y="-1550" as="targetPoint"/>
                    </mxGeometry>
                </mxCell>
                <mxCell id="580" value="" style="triangle;whiteSpace=wrap;html=1;rotation=-180;" vertex="1" parent="1">
                    <mxGeometry x="-1440" y="-1561.5" width="10" height="20" as="geometry"/>
                </mxCell>
                <mxCell id="581" value="RDV record" style="text;html=1;align=center;verticalAlign=middle;whiteSpace=wrap;rounded=0;" vertex="1" parent="1">
                    <mxGeometry x="-1340" y="-1576.5" width="80" height="30" as="geometry"/>
                </mxCell>
                <mxCell id="582" value="" style="endArrow=none;dashed=1;html=1;" edge="1" parent="1" target="583">
                    <mxGeometry width="50" height="50" relative="1" as="geometry">
                        <mxPoint x="-1670" y="-1541" as="sourcePoint"/>
                        <mxPoint x="-1437.5" y="-1541.5" as="targetPoint"/>
                    </mxGeometry>
                </mxCell>
                <mxCell id="583" value="" style="triangle;whiteSpace=wrap;html=1;rotation=-180;" vertex="1" parent="1">
                    <mxGeometry x="-1687.5" y="-1551.5" width="10" height="20" as="geometry"/>
                </mxCell>
                <mxCell id="584" value="Notify about creation" style="text;html=1;align=center;verticalAlign=middle;whiteSpace=wrap;rounded=0;" vertex="1" parent="1">
                    <mxGeometry x="-1625" y="-1571.5" width="130" height="30" as="geometry"/>
                </mxCell>
                <mxCell id="585" value="Select car" style="text;html=1;align=center;verticalAlign=middle;whiteSpace=wrap;rounded=0;" vertex="1" parent="1">
                    <mxGeometry x="-1875" y="-1510" width="130" height="30" as="geometry"/>
                </mxCell>
                <mxCell id="586" value="Send car with id" style="text;html=1;align=center;verticalAlign=middle;whiteSpace=wrap;rounded=0;" vertex="1" parent="1">
                    <mxGeometry x="-1625" y="-1491.5" width="130" height="20" as="geometry"/>
                </mxCell>
                <mxCell id="587" value="Add new car" style="text;html=1;align=center;verticalAlign=middle;whiteSpace=wrap;rounded=0;" vertex="1" parent="1">
                    <mxGeometry x="-1875" y="-1410" width="130" height="20" as="geometry"/>
                </mxCell>
                <mxCell id="588" value="Add car" style="text;html=1;align=center;verticalAlign=middle;whiteSpace=wrap;rounded=0;" vertex="1" parent="1">
                    <mxGeometry x="-1625" y="-1401.5" width="130" height="20" as="geometry"/>
                </mxCell>
                <mxCell id="589" value="" style="endArrow=classic;html=1;" edge="1" parent="1">
                    <mxGeometry width="50" height="50" relative="1" as="geometry">
                        <mxPoint x="-1440" y="-1370" as="sourcePoint"/>
                        <mxPoint x="-1440" y="-1330" as="targetPoint"/>
                        <Array as="points">
                            <mxPoint x="-1390" y="-1370"/>
                            <mxPoint x="-1390" y="-1330"/>
                        </Array>
                    </mxGeometry>
                </mxCell>
                <mxCell id="590" value="Verify car infos" style="text;html=1;align=center;verticalAlign=middle;whiteSpace=wrap;rounded=0;" vertex="1" parent="1">
                    <mxGeometry x="-1400" y="-1370" width="80" height="30" as="geometry"/>
                </mxCell>
                <mxCell id="591" value="Save new rdv" style="text;html=1;align=center;verticalAlign=middle;whiteSpace=wrap;rounded=0;" vertex="1" parent="1">
                    <mxGeometry x="-1360" y="-1335" width="80" height="30" as="geometry"/>
                </mxCell>
                <mxCell id="592" value="" style="endArrow=none;dashed=1;html=1;" edge="1" parent="1" target="593">
                    <mxGeometry width="50" height="50" relative="1" as="geometry">
                        <mxPoint x="-1425" y="-1290.5" as="sourcePoint"/>
                        <mxPoint x="-1175" y="-1290.5" as="targetPoint"/>
                    </mxGeometry>
                </mxCell>
                <mxCell id="593" value="" style="triangle;whiteSpace=wrap;html=1;rotation=-180;" vertex="1" parent="1">
                    <mxGeometry x="-1440" y="-1300" width="10" height="20" as="geometry"/>
                </mxCell>
                <mxCell id="594" value="car record" style="text;html=1;align=center;verticalAlign=middle;whiteSpace=wrap;rounded=0;" vertex="1" parent="1">
                    <mxGeometry x="-1360" y="-1311.5" width="80" height="21.5" as="geometry"/>
                </mxCell>
                <mxCell id="595" value="" style="triangle;whiteSpace=wrap;html=1;rotation=-180;" vertex="1" parent="1">
                    <mxGeometry x="-1687.5" y="-1290" width="10" height="20" as="geometry"/>
                </mxCell>
                <mxCell id="596" value="car data" style="text;html=1;align=center;verticalAlign=middle;whiteSpace=wrap;rounded=0;" vertex="1" parent="1">
                    <mxGeometry x="-1610" y="-1301.5" width="80" height="21.5" as="geometry"/>
                </mxCell>
                <mxCell id="597" value="ALT" style="shape=umlFrame;whiteSpace=wrap;html=1;pointerEvents=0;recursiveResize=0;container=1;collapsible=0;width=170;" vertex="1" parent="1">
                    <mxGeometry x="-2170" y="-1886.5" width="1060" height="896.5" as="geometry"/>
                </mxCell>
                <mxCell id="598" value="[Guest]" style="text;html=1;" vertex="1" parent="597">
                    <mxGeometry width="100" height="20" relative="1" as="geometry">
                        <mxPoint x="20" y="40" as="offset"/>
                    </mxGeometry>
                </mxCell>
                <mxCell id="599" value="[Client]" style="line;strokeWidth=1;dashed=1;labelPosition=center;verticalLabelPosition=bottom;align=left;verticalAlign=top;spacingLeft=20;spacingTop=15;html=1;whiteSpace=wrap;" vertex="1" parent="597">
                    <mxGeometry y="356.5" width="1060" height="10" as="geometry"/>
                </mxCell>
                <mxCell id="522" value="" style="endArrow=none;dashed=1;html=1;" edge="1" parent="597">
                    <mxGeometry width="50" height="50" relative="1" as="geometry">
                        <mxPoint x="250" y="997.3903620793268" as="sourcePoint"/>
                        <mxPoint x="250" y="-143.50000000000023" as="targetPoint"/>
                    </mxGeometry>
                </mxCell>
                <mxCell id="525" value="" style="endArrow=none;dashed=1;html=1;" edge="1" parent="597">
                    <mxGeometry width="50" height="50" relative="1" as="geometry">
                        <mxPoint x="480.5" y="996.4999999999999" as="sourcePoint"/>
                        <mxPoint x="480" y="-143.50000000000023" as="targetPoint"/>
                    </mxGeometry>
                </mxCell>
                <mxCell id="524" value="" style="endArrow=none;dashed=1;html=1;" edge="1" parent="597">
                    <mxGeometry width="50" height="50" relative="1" as="geometry">
                        <mxPoint x="730.3199999999999" y="996.4999999999999" as="sourcePoint"/>
                        <mxPoint x="730" y="-143.50000000000023" as="targetPoint"/>
                    </mxGeometry>
                </mxCell>
                <mxCell id="523" value="" style="endArrow=none;dashed=1;html=1;" edge="1" parent="597">
                    <mxGeometry width="50" height="50" relative="1" as="geometry">
                        <mxPoint x="990.5" y="981.4999999999999" as="sourcePoint"/>
                        <mxPoint x="990" y="-143.50000000000023" as="targetPoint"/>
                    </mxGeometry>
                </mxCell>
                <mxCell id="600" value="" style="endArrow=classic;html=1;" edge="1" parent="1">
                    <mxGeometry width="50" height="50" relative="1" as="geometry">
                        <mxPoint x="-1687.5" y="-1210" as="sourcePoint"/>
                        <mxPoint x="-1687.5" y="-1170" as="targetPoint"/>
                        <Array as="points">
                            <mxPoint x="-1637.5" y="-1210"/>
                            <mxPoint x="-1637.5" y="-1170"/>
                        </Array>
                    </mxGeometry>
                </mxCell>
                <mxCell id="601" value="" style="endArrow=classic;html=1;" edge="1" parent="1">
                    <mxGeometry width="50" height="50" relative="1" as="geometry">
                        <mxPoint x="-1690" y="-1140" as="sourcePoint"/>
                        <mxPoint x="-1440" y="-1140" as="targetPoint"/>
                    </mxGeometry>
                </mxCell>
                <mxCell id="602" value="Add rdv" style="text;html=1;align=center;verticalAlign=middle;whiteSpace=wrap;rounded=0;" vertex="1" parent="1">
                    <mxGeometry x="-1625" y="-1170" width="130" height="20" as="geometry"/>
                </mxCell>
                <mxCell id="603" value="Show rdv details" style="text;html=1;align=center;verticalAlign=middle;whiteSpace=wrap;rounded=0;" vertex="1" parent="1">
                    <mxGeometry x="-1650" y="-1200" width="80" height="30" as="geometry"/>
                </mxCell>
                <mxCell id="604" value="" style="endArrow=classic;html=1;" edge="1" parent="1">
                    <mxGeometry width="50" height="50" relative="1" as="geometry">
                        <mxPoint x="-1915" y="-1160" as="sourcePoint"/>
                        <mxPoint x="-1690" y="-1160" as="targetPoint"/>
                    </mxGeometry>
                </mxCell>
                <mxCell id="605" value="Confirm and launch creation" style="text;html=1;align=center;verticalAlign=middle;whiteSpace=wrap;rounded=0;" vertex="1" parent="1">
                    <mxGeometry x="-1887.5" y="-1190" width="180" height="30" as="geometry"/>
                </mxCell>
                <mxCell id="606" value="" style="endArrow=classic;html=1;" edge="1" parent="1">
                    <mxGeometry width="50" height="50" relative="1" as="geometry">
                        <mxPoint x="-1917.5" y="-1220" as="sourcePoint"/>
                        <mxPoint x="-1690" y="-1220" as="targetPoint"/>
                    </mxGeometry>
                </mxCell>
                <mxCell id="607" value="Initilize booking appointment" style="text;html=1;align=center;verticalAlign=middle;whiteSpace=wrap;rounded=0;" vertex="1" parent="1">
                    <mxGeometry x="-1890" y="-1250" width="180" height="30" as="geometry"/>
                </mxCell>
                <mxCell id="608" value="" style="endArrow=classic;html=1;" edge="1" parent="1">
                    <mxGeometry width="50" height="50" relative="1" as="geometry">
                        <mxPoint x="-1440" y="-1130" as="sourcePoint"/>
                        <mxPoint x="-1440" y="-1090" as="targetPoint"/>
                        <Array as="points">
                            <mxPoint x="-1390" y="-1130"/>
                            <mxPoint x="-1390" y="-1090"/>
                        </Array>
                    </mxGeometry>
                </mxCell>
                <mxCell id="609" value="Verify rdv infos" style="text;html=1;align=center;verticalAlign=middle;whiteSpace=wrap;rounded=0;" vertex="1" parent="1">
                    <mxGeometry x="-1400" y="-1145.5" width="80" height="45.5" as="geometry"/>
                </mxCell>
                <mxCell id="610" value="" style="endArrow=classic;html=1;" edge="1" parent="1">
                    <mxGeometry width="50" height="50" relative="1" as="geometry">
                        <mxPoint x="-1440" y="-1070" as="sourcePoint"/>
                        <mxPoint x="-1180" y="-1070" as="targetPoint"/>
                    </mxGeometry>
                </mxCell>
                <mxCell id="611" value="Save new rdv and update car&#39;s rdvs" style="text;html=1;align=center;verticalAlign=middle;whiteSpace=wrap;rounded=0;" vertex="1" parent="1">
                    <mxGeometry x="-1360" y="-1100" width="100" height="30" as="geometry"/>
                </mxCell>
                <mxCell id="612" value="" style="endArrow=none;dashed=1;html=1;" edge="1" parent="1" target="613">
                    <mxGeometry width="50" height="50" relative="1" as="geometry">
                        <mxPoint x="-1430" y="-1040" as="sourcePoint"/>
                        <mxPoint x="-1180" y="-1040" as="targetPoint"/>
                    </mxGeometry>
                </mxCell>
                <mxCell id="613" value="" style="triangle;whiteSpace=wrap;html=1;rotation=-180;" vertex="1" parent="1">
                    <mxGeometry x="-1440" y="-1050" width="10" height="20" as="geometry"/>
                </mxCell>
                <mxCell id="614" value="" style="endArrow=none;dashed=1;html=1;" edge="1" parent="1" source="613">
                    <mxGeometry width="50" height="50" relative="1" as="geometry">
                        <mxPoint x="-1430" y="-1040" as="sourcePoint"/>
                        <mxPoint x="-1180" y="-1040" as="targetPoint"/>
                    </mxGeometry>
                </mxCell>
                <mxCell id="615" value="RDV record" style="text;html=1;align=center;verticalAlign=middle;whiteSpace=wrap;rounded=0;" vertex="1" parent="1">
                    <mxGeometry x="-1350" y="-1070" width="80" height="30" as="geometry"/>
                </mxCell>
                <mxCell id="616" value="" style="endArrow=none;dashed=1;html=1;exitX=0;exitY=0.5;exitDx=0;exitDy=0;" edge="1" parent="1" target="617">
                    <mxGeometry width="50" height="50" relative="1" as="geometry">
                        <mxPoint x="-1678.5" y="-1030" as="sourcePoint"/>
                        <mxPoint x="-1441.5" y="-1030" as="targetPoint"/>
                    </mxGeometry>
                </mxCell>
                <mxCell id="617" value="" style="triangle;whiteSpace=wrap;html=1;rotation=-180;" vertex="1" parent="1">
                    <mxGeometry x="-1687.5" y="-1040" width="10" height="20" as="geometry"/>
                </mxCell>
                <mxCell id="618" value="" style="endArrow=none;dashed=1;html=1;exitX=0;exitY=0.5;exitDx=0;exitDy=0;" edge="1" parent="1" source="617">
                    <mxGeometry width="50" height="50" relative="1" as="geometry">
                        <mxPoint x="-1677" y="-1030" as="sourcePoint"/>
                        <mxPoint x="-1440" y="-1030" as="targetPoint"/>
                    </mxGeometry>
                </mxCell>
                <mxCell id="619" value="Notify about creation" style="text;html=1;align=center;verticalAlign=middle;whiteSpace=wrap;rounded=0;" vertex="1" parent="1">
                    <mxGeometry x="-1625" y="-1060" width="130" height="30" as="geometry"/>
                </mxCell>
                <mxCell id="621" value="" style="endArrow=none;dashed=1;html=1;" edge="1" parent="1" target="620">
                    <mxGeometry width="50" height="50" relative="1" as="geometry">
                        <mxPoint x="-1378" y="990" as="sourcePoint"/>
                        <mxPoint x="-1378" y="160" as="targetPoint"/>
                    </mxGeometry>
                </mxCell>
                <mxCell id="620" value="{ Client }" style="rounded=1;whiteSpace=wrap;html=1;" vertex="1" parent="1">
                    <mxGeometry x="-1422.5" y="368.5" width="87.5" height="30" as="geometry"/>
                </mxCell>
                <mxCell id="624" value="" style="endArrow=none;dashed=1;html=1;" edge="1" parent="1" target="623">
                    <mxGeometry width="50" height="50" relative="1" as="geometry">
                        <mxPoint x="-1147" y="990" as="sourcePoint"/>
                        <mxPoint x="-1147.5" y="160" as="targetPoint"/>
                    </mxGeometry>
                </mxCell>
                <mxCell id="627" value="" style="rounded=0;whiteSpace=wrap;html=1;" vertex="1" parent="1">
                    <mxGeometry x="-530" y="141.37" width="80" height="19.5" as="geometry"/>
                </mxCell>
                <mxCell id="628" value="" style="ellipse;whiteSpace=wrap;html=1;aspect=fixed;" vertex="1" parent="1">
                    <mxGeometry x="-507.5" y="105" width="30" height="30" as="geometry"/>
                </mxCell>
                <mxCell id="629" value="" style="endArrow=none;dashed=1;html=1;" edge="1" parent="1">
                    <mxGeometry width="50" height="50" relative="1" as="geometry">
                        <mxPoint x="-487" y="990" as="sourcePoint"/>
                        <mxPoint x="-487.5" y="165.37" as="targetPoint"/>
                    </mxGeometry>
                </mxCell>
                <mxCell id="630" value="&lt;u&gt;:Appointment&lt;/u&gt;" style="text;html=1;align=center;verticalAlign=middle;whiteSpace=wrap;rounded=0;" vertex="1" parent="1">
                    <mxGeometry x="-520" y="137.49" width="60" height="25" as="geometry"/>
                </mxCell>
                <mxCell id="631" value="" style="endArrow=none;html=1;" edge="1" parent="1">
                    <mxGeometry width="50" height="50" relative="1" as="geometry">
                        <mxPoint x="-512.5" y="135" as="sourcePoint"/>
                        <mxPoint x="-472.5" y="135" as="targetPoint"/>
                    </mxGeometry>
                </mxCell>
                <mxCell id="636" value="" style="triangle;whiteSpace=wrap;html=1;rotation=-195;" vertex="1" parent="1">
                    <mxGeometry x="-237.5" y="-836.5" width="10" height="10" as="geometry"/>
                </mxCell>
                <mxCell id="639" value="" style="triangle;whiteSpace=wrap;html=1;rotation=-165;" vertex="1" parent="1">
                    <mxGeometry x="-235" y="-826.5" width="10" height="10" as="geometry"/>
                </mxCell>
                <mxCell id="640" value="" style="triangle;whiteSpace=wrap;html=1;rotation=-135;" vertex="1" parent="1">
                    <mxGeometry x="-242.5" y="-815" width="10" height="10" as="geometry"/>
                </mxCell>
                <mxCell id="645" value="" style="fontStyle=1;align=center;verticalAlign=middle;childLayout=stackLayout;horizontal=1;horizontalStack=0;resizeParent=1;resizeParentMax=0;resizeLast=0;marginBottom=0;" vertex="1" parent="1">
                    <mxGeometry x="460" y="-704.61" width="130" height="90" as="geometry"/>
                </mxCell>
                <mxCell id="646" value="&amp;lt;&amp;lt;actor&amp;gt;&amp;gt;" style="html=1;align=center;spacing=0;verticalAlign=middle;strokeColor=none;fillColor=none;whiteSpace=wrap;spacingTop=3;" vertex="1" parent="645">
                    <mxGeometry width="130" height="20" as="geometry"/>
                </mxCell>
                <mxCell id="647" value="Banking Service" style="html=1;align=center;spacing=0;verticalAlign=middle;strokeColor=none;fillColor=none;whiteSpace=wrap;spacingBottom=4;fontStyle=1" vertex="1" parent="645">
                    <mxGeometry y="20" width="130" height="70" as="geometry"/>
                </mxCell>
                <mxCell id="650" value="pay" style="ellipse;whiteSpace=wrap;html=1;" vertex="1" parent="1">
                    <mxGeometry x="-232.5" y="-664.61" width="65" height="30" as="geometry"/>
                </mxCell>
                <mxCell id="651" value="" style="endArrow=none;html=1;entryX=0;entryY=0.5;entryDx=0;entryDy=0;" edge="1" parent="1" target="650">
                    <mxGeometry width="50" height="50" relative="1" as="geometry">
                        <mxPoint x="-400" y="-816.5" as="sourcePoint"/>
                        <mxPoint x="-282.75" y="-733.61" as="targetPoint"/>
                    </mxGeometry>
                </mxCell>
                <mxCell id="653" value="" style="endArrow=none;html=1;entryX=0;entryY=0.5;entryDx=0;entryDy=0;exitX=1;exitY=0.5;exitDx=0;exitDy=0;" edge="1" parent="1" source="660" target="647">
                    <mxGeometry width="50" height="50" relative="1" as="geometry">
                        <mxPoint x="-60" y="-649.61" as="sourcePoint"/>
                        <mxPoint x="100" y="-654.61" as="targetPoint"/>
                    </mxGeometry>
                </mxCell>
                <mxCell id="656" value="&lt;font style=&quot;font-size: 8px;&quot;&gt;&amp;lt;&amp;lt;secondary&amp;gt;&amp;gt;&lt;/font&gt;" style="text;strokeColor=none;fillColor=none;align=left;verticalAlign=middle;spacingLeft=4;spacingRight=4;overflow=hidden;points=[[0,0.5],[1,0.5]];portConstraint=eastwest;rotatable=0;whiteSpace=wrap;html=1;" vertex="1" parent="1">
                    <mxGeometry x="400" y="-674.61" width="60" height="20" as="geometry"/>
                </mxCell>
                <mxCell id="659" value="check" style="ellipse;whiteSpace=wrap;html=1;" vertex="1" parent="1">
                    <mxGeometry x="-150" y="-630" width="65" height="30" as="geometry"/>
                </mxCell>
                <mxCell id="660" value="card" style="ellipse;whiteSpace=wrap;html=1;" vertex="1" parent="1">
                    <mxGeometry x="-144" y="-664.61" width="65" height="30" as="geometry"/>
                </mxCell>
                <mxCell id="661" value="cash" style="ellipse;whiteSpace=wrap;html=1;" vertex="1" parent="1">
                    <mxGeometry x="-152.75" y="-701.5" width="65" height="30" as="geometry"/>
                </mxCell>
                <mxCell id="662" value="" style="endArrow=none;dashed=1;html=1;entryX=0;entryY=0.5;entryDx=0;entryDy=0;exitX=1;exitY=0;exitDx=0;exitDy=0;" edge="1" parent="1" source="671" target="661">
                    <mxGeometry width="50" height="50" relative="1" as="geometry">
                        <mxPoint x="-30" y="-664.61" as="sourcePoint"/>
                        <mxPoint x="20" y="-714.61" as="targetPoint"/>
                    </mxGeometry>
                </mxCell>
                <mxCell id="663" value="" style="endArrow=none;dashed=1;html=1;entryX=0;entryY=0.5;entryDx=0;entryDy=0;exitX=1;exitY=0;exitDx=0;exitDy=0;" edge="1" parent="1" source="669" target="660">
                    <mxGeometry width="50" height="50" relative="1" as="geometry">
                        <mxPoint x="-167" y="-650.61" as="sourcePoint"/>
                        <mxPoint x="-143" y="-676.61" as="targetPoint"/>
                    </mxGeometry>
                </mxCell>
                <mxCell id="664" value="" style="endArrow=none;dashed=1;html=1;entryX=0;entryY=0.5;entryDx=0;entryDy=0;exitX=1;exitY=1;exitDx=0;exitDy=0;" edge="1" parent="1" source="667" target="659">
                    <mxGeometry width="50" height="50" relative="1" as="geometry">
                        <mxPoint x="-157" y="-640.61" as="sourcePoint"/>
                        <mxPoint x="-133" y="-666.61" as="targetPoint"/>
                    </mxGeometry>
                </mxCell>
                <mxCell id="665" value="&lt;font style=&quot;font-size: 8px;&quot;&gt;&amp;lt;&amp;lt;extends&amp;gt;&amp;gt;&lt;/font&gt;" style="text;strokeColor=none;fillColor=none;align=left;verticalAlign=middle;spacingLeft=4;spacingRight=4;overflow=hidden;points=[[0,0.5],[1,0.5]];portConstraint=eastwest;rotatable=0;whiteSpace=wrap;html=1;" vertex="1" parent="1">
                    <mxGeometry x="-210" y="-684.61" width="60" height="20" as="geometry"/>
                </mxCell>
                <mxCell id="666" value="&lt;font style=&quot;font-size: 8px;&quot;&gt;&amp;lt;&amp;lt;extends&amp;gt;&amp;gt;&lt;/font&gt;" style="text;strokeColor=none;fillColor=none;align=left;verticalAlign=middle;spacingLeft=4;spacingRight=4;overflow=hidden;points=[[0,0.5],[1,0.5]];portConstraint=eastwest;rotatable=0;whiteSpace=wrap;html=1;" vertex="1" parent="1">
                    <mxGeometry x="-210" y="-634.61" width="60" height="20" as="geometry"/>
                </mxCell>
                <mxCell id="667" value="" style="triangle;whiteSpace=wrap;html=1;rotation=-135;" vertex="1" parent="1">
                    <mxGeometry x="-180" y="-640" width="7.5" height="10" as="geometry"/>
                </mxCell>
                <mxCell id="671" value="" style="triangle;whiteSpace=wrap;html=1;rotation=-225;" vertex="1" parent="1">
                    <mxGeometry x="-180" y="-669.61" width="7.5" height="10" as="geometry"/>
                </mxCell>
                <mxCell id="673" value="" style="endArrow=none;dashed=1;html=1;entryX=0;entryY=0.5;entryDx=0;entryDy=0;exitX=1;exitY=0;exitDx=0;exitDy=0;" edge="1" parent="1" target="669">
                    <mxGeometry width="50" height="50" relative="1" as="geometry">
                        <mxPoint x="-167" y="-650.61" as="sourcePoint"/>
                        <mxPoint x="-144" y="-649.61" as="targetPoint"/>
                    </mxGeometry>
                </mxCell>
                <mxCell id="669" value="" style="triangle;whiteSpace=wrap;html=1;rotation=-180;" vertex="1" parent="1">
                    <mxGeometry x="-168.75" y="-654.61" width="7.5" height="10" as="geometry"/>
                </mxCell>
                <mxCell id="674" value="" style="endArrow=none;html=1;exitX=1;exitY=0.5;exitDx=0;exitDy=0;" edge="1" parent="1" source="659">
                    <mxGeometry width="50" height="50" relative="1" as="geometry">
                        <mxPoint x="-69" y="-639.61" as="sourcePoint"/>
                        <mxPoint x="460" y="-634.61" as="targetPoint"/>
                    </mxGeometry>
                </mxCell>
                <mxCell id="675" value="make reclamation" style="ellipse;whiteSpace=wrap;html=1;" vertex="1" parent="1">
                    <mxGeometry x="-286.25" y="-741.5" width="91.25" height="40" as="geometry"/>
                </mxCell>
                <mxCell id="676" value="" style="endArrow=none;html=1;entryX=0;entryY=0.5;entryDx=0;entryDy=0;" edge="1" parent="1" target="675">
                    <mxGeometry width="50" height="50" relative="1" as="geometry">
                        <mxPoint x="-400" y="-826.5" as="sourcePoint"/>
                        <mxPoint x="-314" y="-761" as="targetPoint"/>
                    </mxGeometry>
                </mxCell>
                <mxCell id="677" value="contact agent" style="ellipse;whiteSpace=wrap;html=1;" vertex="1" parent="1">
                    <mxGeometry x="-360.25" y="-570" width="110" height="40" as="geometry"/>
                </mxCell>
                <mxCell id="678" value="" style="endArrow=none;html=1;entryX=0;entryY=0;entryDx=0;entryDy=0;" edge="1" parent="1" target="677">
                    <mxGeometry width="50" height="50" relative="1" as="geometry">
                        <mxPoint x="-425" y="-799.61" as="sourcePoint"/>
                        <mxPoint x="-325" y="-568.11" as="targetPoint"/>
                    </mxGeometry>
                </mxCell>
            </root>
        </mxGraphModel>
    </diagram>
</mxfile>